#VRML V2.0 utf8
# 3D model generated by kicad-lcsc-manager
# Based on easyeda2kicad.py v1.0.1

Shape{
    appearance Appearance {
        material  Material {
            diffuseColor 0.20784313725490197 0.20784313725490197 0.20784313725490197
            specularColor 0.01568627450980392 0.01568627450980392 0.01568627450980392
            ambientIntensity 0.298
            transparency 0.0
            shininess 0.5
        }
    }
    geometry IndexedFaceSet {
        ccw TRUE
        solid FALSE
        coord DEF co Coordinate {
            point [
                0.0496 -0.2457 0.0004, 0.0496 -0.3937 0.0004, 0.0413 -0.3937 0.0004, 0.049 -0.1309 0.0004, 0.049 -0.1395 0.0004, 0.0413 -0.1441 0.0004, 0.0578 -0.0738 0.0004, 0.0504 -0.1317 0.0004, 0.0674 -0.0726 0.0004, 0.0752 -0.0734 0.0004, 0.1546 -0.1436 0.0004, 0.0753 -0.1441 0.0004, 0.1143 -0.1436 0.0004, 0.0803 -0.1436 0.0004, 0.088 -0.1409 0.0004, 0.144 -0.0649 0.0004, 0.1247 -0.0244 0.0004, 0.1324 -0.0345 0.0004, 0.0413 0.3937 0.0004, 0.049 -0.067 0.0004, 0.049 -0.0776 0.0004, 0.0811 -0.0756 0.0004, 0.0865 -0.0792 0.0004, 0.0913 -0.0844 0.0004, 0.097 -0.1051 0.0004, 0.0962 -0.1136 0.0004, 0.094 -0.1204 0.0004, 0.0765 -0.1351 0.0004, 0.0692 -0.1359 0.0004, 0.0823 -0.133 0.0004, 0.0871 -0.1297 0.0004, 0.0908 -0.1258 0.0004, 0.0587 -0.1348 0.0004, 0.0945 -0.0905 0.0004, 0.0966 -0.099 0.0004, 0.1425 -0.0423 0.0004, 0.1543 -0.0472 0.0004, 0.1546 -0.0649 0.0004, 0.1669 -0.0488 0.0004, 0.1034 -0.0856 0.0004, 0.0988 -0.0782 0.0004, 0.3441 0.3937 0.0004, 0.3937 0.3937 0.0004, 0.3441 0.2457 0.0004, 0.3937 0.0488 0.0004, 0.253 0.2213 0.0004, 0.2608 0.2111 0.0004, 0.1456 0.233 0.0004, 0.1472 0.3937 0.0004, 0.2465 0.3937 0.0004, 0.1472 0.2457 0.0004, 0.2465 0.2457 0.0004, 0.2481 0.233 0.0004, 0.1181 0.0 0.0004, 0.1198 -0.0126 0.0004, 0.3298 0.2111 0.0004, 0.3197 0.2034 0.0004, 0.3079 0.1985 0.0004, 0.3376 0.2213 0.0004, 0.3424 0.233 0.0004, 0.0943 -0.1369 0.0004, 0.1002 -0.1307 0.0004, 0.1143 -0.135 0.0004, 0.1044 -0.1232 0.0004, 0.144 -0.135 0.0004, 0.0916 -0.0714 0.0004, 0.0841 -0.0671 0.0004, 0.0754 -0.0646 0.0004, 0.074 0.2034 0.0004, 0.0858 0.1985 0.0004, 0.1324 0.0345 0.0004, 0.0984 0.1969 0.0004, 0.1198 0.0126 0.0004, 0.0513 0.233 0.0004, 0.1247 0.0244 0.0004, 0.0561 0.2213 0.0004, 0.0639 0.2111 0.0004, 0.1329 0.2111 0.0004, 0.1407 0.2213 0.0004, 0.1068 -0.1148 0.0004, 0.1075 -0.1057 0.0004, 0.1064 -0.0945 0.0004, 0.0675 -0.0639 0.0004, 0.0581 -0.0646 0.0004, 0.2709 0.2034 0.0004, 0.2826 0.1985 0.0004, 0.2953 0.1969 0.0004, 0.1228 0.2034 0.0004, 0.1669 0.0488 0.0004, 0.1111 0.1985 0.0004, 0.1543 0.0472 0.0004, 0.1425 0.0423 0.0004, 0.0496 0.2457 0.0004, 0.0496 0.3937 0.0004, 0.3298 -0.2111 0.0004, 0.3937 -0.1441 0.0004, 0.3376 -0.2213 0.0004, 0.3424 -0.233 0.0004, 0.3937 -0.3937 0.0004, 0.3441 -0.3937 0.0004, 0.3441 -0.2457 0.0004, 0.3197 -0.2034 0.0004, 0.3079 -0.1985 0.0004, 0.2953 -0.1969 0.0004, 0.1407 -0.2213 0.0004, 0.1329 -0.2111 0.0004, 0.2709 -0.2034 0.0004, 0.074 -0.2034 0.0004, 0.0639 -0.2111 0.0004, 0.3937 -0.0488 0.0004, 0.0561 -0.2213 0.0004, 0.0513 -0.233 0.0004, 0.1456 -0.233 0.0004, 0.2608 -0.2111 0.0004, 0.253 -0.2213 0.0004, 0.2465 -0.2457 0.0004, 0.2465 -0.3937 0.0004, 0.1472 -0.3937 0.0004, 0.2481 -0.233 0.0004, 0.1472 -0.2457 0.0004, 0.1228 -0.2034 0.0004, 0.2826 -0.1985 0.0004, 0.1111 -0.1985 0.0004, 0.0984 -0.1969 0.0004, 0.0706 -0.1446 0.0004, 0.0858 -0.1985 0.0004, 0.0685 -0.1445 0.0004, 0.0653 -0.1441 0.0004, 0.0574 -0.143 0.0004, -0.0086 -0.1436 0.0004, 0.0336 -0.1436 0.0004, -0.0931 -0.1436 0.0004, -0.0835 -0.122 0.0004, -0.0789 -0.1291 0.0004, 0.0336 -0.0649 0.0004, -0.0067 -0.0735 0.0004, 0.023 -0.0735 0.0004, 0.023 -0.0994 0.0004, -0.0725 -0.1353 0.0004, -0.0642 -0.1401 0.0004, -0.0552 -0.1428 0.0004, -0.0639 0.2111 0.0004, -0.0561 0.2213 0.0004, -0.0513 0.233 0.0004, -0.0496 0.2457 0.0004, -0.0496 0.3937 0.0004, -0.2481 0.233 0.0004, -0.1407 0.2213 0.0004, -0.1329 0.2111 0.0004, -0.024 -0.0649 0.0004, -0.0048 -0.0994 0.0004, -0.0048 -0.1081 0.0004, 0.023 -0.1081 0.0004, 0.023 -0.135 0.0004, -0.0086 -0.135 0.0004, -0.024 -0.1436 0.0004, -0.0454 -0.1436 0.0004, -0.2465 0.3937 0.0004, -0.1472 0.3937 0.0004, -0.2465 0.2457 0.0004, -0.1472 0.2457 0.0004, -0.1456 0.233 0.0004, -0.1181 0.0 0.0004, -0.1229 -0.0649 0.0004, -0.1198 -0.0126 0.0004, -0.1247 -0.0244 0.0004, -0.0067 -0.0649 0.0004, -0.0858 0.1985 0.0004, -0.074 0.2034 0.0004, -0.3937 0.3937 0.0004, -0.3441 0.3937 0.0004, -0.3441 0.2457 0.0004, -0.3298 0.2111 0.0004, -0.3197 0.2034 0.0004, -0.3937 0.0488 0.0004, -0.3937 -0.0488 0.0004, -0.1669 -0.0488 0.0004, -0.1642 -0.1436 0.0004, -0.1543 -0.0472 0.0004, -0.1335 -0.0649 0.0004, -0.1425 -0.0423 0.0004, -0.1324 -0.0345 0.0004, -0.1527 -0.1436 0.0004, -0.3937 -0.1441 0.0004, -0.3376 0.2213 0.0004, -0.1447 -0.1215 0.0004, -0.1122 -0.1215 0.0004, -0.1047 -0.1436 0.0004, -0.2709 0.2034 0.0004, -0.2608 0.2111 0.0004, -0.253 0.2213 0.0004, -0.3424 0.233 0.0004, -0.3079 0.1985 0.0004, -0.2953 0.1969 0.0004, -0.1669 0.0488 0.0004, -0.2826 0.1985 0.0004, -0.1543 0.0472 0.0004, -0.0462 -0.0649 0.0004, -0.1198 0.0126 0.0004, -0.1247 0.0244 0.0004, -0.1324 0.0345 0.0004, -0.0811 -0.0813 0.0004, -0.0847 -0.0881 0.0004, -0.1228 0.2034 0.0004, -0.1111 0.1985 0.0004, -0.0984 0.1969 0.0004, -0.1425 0.0423 0.0004, -0.0868 -0.0959 0.0004, -0.0874 -0.1033 0.0004, -0.0863 -0.1138 0.0004, -0.0576 -0.0661 0.0004, -0.0668 -0.0693 0.0004, -0.0754 -0.0751 0.0004, -0.0755 -0.0752 0.0004, -0.0639 -0.2111 0.0004, -0.074 -0.2034 0.0004, -0.1329 -0.2111 0.0004, -0.1407 -0.2213 0.0004, -0.2481 -0.233 0.0004, -0.0496 -0.2457 0.0004, -0.0513 -0.233 0.0004, -0.0561 -0.2213 0.0004, -0.3079 -0.1985 0.0004, -0.3197 -0.2034 0.0004, -0.3298 -0.2111 0.0004, -0.3376 -0.2213 0.0004, -0.3441 -0.3937 0.0004, -0.3937 -0.3937 0.0004, -0.3441 -0.2457 0.0004, -0.3424 -0.233 0.0004, -0.1472 -0.2457 0.0004, -0.1472 -0.3937 0.0004, -0.2465 -0.3937 0.0004, -0.2608 -0.2111 0.0004, -0.2709 -0.2034 0.0004, -0.2826 -0.1985 0.0004, -0.2953 -0.1969 0.0004, -0.1456 -0.233 0.0004, -0.2465 -0.2457 0.0004, -0.0496 -0.3937 0.0004, -0.0858 -0.1985 0.0004, -0.0984 -0.1969 0.0004, -0.1111 -0.1985 0.0004, -0.253 -0.2213 0.0004, -0.1228 -0.2034 0.0004, -0.3937 0.3937 0.1972, -0.3937 0.0488 0.0394, -0.3937 -0.3937 0.1972, -0.3937 -0.0488 0.0394, -0.3441 -0.3937 0.0394, -0.2465 -0.3937 0.0394, 0.3937 -0.3937 0.1972, -0.0496 -0.3937 0.0394, 0.0496 -0.3937 0.0394, 0.1472 -0.3937 0.0394, -0.1472 -0.3937 0.0394, 0.3441 -0.3937 0.0394, 0.2465 -0.3937 0.0394, 0.3937 -0.0488 0.0394, 0.3937 0.3937 0.1972, 0.3937 0.0488 0.0394, 0.0496 0.3937 0.0394, 0.2465 0.3937 0.0394, 0.3441 0.3937 0.0394, -0.1472 0.3937 0.0394, -0.2465 0.3937 0.0394, 0.1472 0.3937 0.0394, -0.0496 0.3937 0.0394, -0.3441 0.3937 0.0394, -0.2376 -0.2654 0.1972, -0.2362 -0.2756 0.1972, -0.2858 -0.3136 0.1972, -0.2953 -0.3097 0.1972, -0.2376 -0.2858 0.1972, -0.2415 -0.2953 0.1972, -0.2478 -0.3034 0.1972, -0.3034 -0.3034 0.1972, -0.3097 -0.2953 0.1972, -0.3136 -0.2858 0.1972, -0.2415 -0.2559 0.1972, -0.2478 -0.2478 0.1972, -0.3034 -0.2478 0.1972, -0.2953 -0.2415 0.1972, -0.2858 -0.2376 0.1972, -0.2756 -0.2362 0.1972, -0.2654 -0.2376 0.1972, -0.2559 -0.2415 0.1972, -0.2559 -0.3097 0.1972, -0.2654 -0.3136 0.1972, -0.2756 -0.315 0.1972, -0.315 -0.2756 0.1972, -0.3136 -0.2654 0.1972, -0.3097 -0.2559 0.1972
            ]
        }
        coordIndex [
            0,1,2,-1,3,4,5,-1,3,6,7,-1,7,6,8,-1,7,8,9,-1,10,11,12,-1,12,11,13,-1,12,13,14,-1,15,16,17,-1,18,19,20,-1,9,21,7,-1,7,21,22,-1,7,22,23,-1,24,25,7,-1,7,25,26,-1,27,28,29,-1,29,28,30,-1,26,31,7,-1,7,31,30,-1,7,30,32,-1,32,30,28,-1,23,33,7,-1,7,33,34,-1,7,34,24,-1,17,35,15,-1,15,35,36,-1,15,36,37,-1,37,36,38,-1,37,38,10,-1,39,40,15,-1,41,42,43,-1,43,42,44,-1,45,46,47,-1,48,49,50,-1,50,49,51,-1,50,51,47,-1,47,51,52,-1,47,52,45,-1,53,54,19,-1,55,44,56,-1,56,44,57,-1,55,58,44,-1,44,58,59,-1,44,59,43,-1,14,60,12,-1,12,60,61,-1,12,61,62,-1,62,61,63,-1,62,63,64,-1,15,40,16,-1,16,40,65,-1,16,65,54,-1,54,65,66,-1,54,66,67,-1,68,69,70,-1,70,69,71,-1,72,73,74,-1,74,73,75,-1,74,75,70,-1,70,75,76,-1,70,76,68,-1,77,78,44,-1,44,78,47,-1,63,79,64,-1,64,79,80,-1,64,80,15,-1,15,80,81,-1,15,81,39,-1,67,82,54,-1,54,82,83,-1,54,83,19,-1,46,84,47,-1,47,84,85,-1,47,85,44,-1,44,85,86,-1,44,86,57,-1,77,44,87,-1,87,44,88,-1,87,88,89,-1,89,88,90,-1,89,90,71,-1,71,90,91,-1,71,91,70,-1,72,53,73,-1,73,53,19,-1,73,19,92,-1,92,19,18,-1,92,18,93,-1,94,95,96,-1,96,95,97,-1,98,99,95,-1,95,99,100,-1,95,100,97,-1,94,101,95,-1,95,101,102,-1,95,102,103,-1,104,105,106,-1,5,107,108,-1,38,109,10,-1,10,109,95,-1,10,95,11,-1,11,95,103,-1,108,110,5,-1,5,110,111,-1,5,111,0,-1,104,106,112,-1,112,106,113,-1,112,113,114,-1,115,116,117,-1,114,118,112,-1,112,118,115,-1,112,115,119,-1,119,115,117,-1,105,120,106,-1,106,120,11,-1,106,11,121,-1,121,11,103,-1,120,122,11,-1,11,122,123,-1,11,123,124,-1,124,123,125,-1,124,125,126,-1,126,125,107,-1,126,107,127,-1,127,107,5,-1,127,5,128,-1,128,5,4,-1,129,130,5,-1,131,132,133,-1,130,134,5,-1,5,134,18,-1,5,18,3,-1,3,18,20,-1,3,20,6,-1,135,136,137,-1,133,138,131,-1,131,138,139,-1,131,139,140,-1,141,142,134,-1,134,142,143,-1,134,143,18,-1,18,143,144,-1,18,144,145,-1,146,147,148,-1,149,150,151,-1,152,153,151,-1,151,153,154,-1,151,154,149,-1,149,154,129,-1,149,129,155,-1,155,129,5,-1,155,5,156,-1,157,158,159,-1,159,158,160,-1,159,160,146,-1,146,160,161,-1,146,161,147,-1,162,163,164,-1,164,163,165,-1,166,167,134,-1,134,167,168,-1,134,168,141,-1,169,170,171,-1,172,173,174,-1,175,176,177,-1,177,176,178,-1,177,178,179,-1,179,178,180,-1,179,180,163,-1,163,180,181,-1,163,181,165,-1,182,5,177,-1,177,5,183,-1,177,183,175,-1,172,174,184,-1,185,186,182,-1,182,186,187,-1,182,187,5,-1,5,187,131,-1,5,131,156,-1,156,131,140,-1,188,189,166,-1,166,189,190,-1,166,190,146,-1,169,171,174,-1,174,171,191,-1,174,191,184,-1,173,192,174,-1,174,192,193,-1,174,193,194,-1,194,193,195,-1,194,195,196,-1,196,195,188,-1,197,198,149,-1,149,198,199,-1,149,199,200,-1,163,201,202,-1,148,203,146,-1,146,203,204,-1,146,204,166,-1,166,204,205,-1,166,205,167,-1,137,150,135,-1,135,150,149,-1,135,149,166,-1,166,149,200,-1,166,200,188,-1,188,200,206,-1,188,206,196,-1,202,207,163,-1,163,207,208,-1,163,208,131,-1,131,208,209,-1,131,209,132,-1,197,210,198,-1,198,210,211,-1,198,211,162,-1,162,211,212,-1,162,212,163,-1,163,212,213,-1,163,213,201,-1,5,214,215,-1,216,217,218,-1,219,220,5,-1,5,220,221,-1,5,221,214,-1,222,223,183,-1,183,223,224,-1,183,224,225,-1,226,227,228,-1,228,227,183,-1,228,183,229,-1,229,183,225,-1,230,231,232,-1,233,234,5,-1,5,234,235,-1,5,235,183,-1,183,235,236,-1,183,236,222,-1,217,237,218,-1,218,237,230,-1,218,230,238,-1,238,230,232,-1,0,2,5,-1,5,2,239,-1,5,239,219,-1,215,240,5,-1,5,240,241,-1,5,241,242,-1,233,5,243,-1,243,5,242,-1,243,242,218,-1,218,242,244,-1,218,244,216,-1,169,174,245,-1,245,174,246,-1,245,246,247,-1,247,246,248,-1,248,175,247,-1,247,175,183,-1,247,183,227,-1,227,226,249,-1,227,249,247,-1,247,249,250,-1,247,250,251,-1,252,239,2,-1,253,254,251,-1,232,231,250,-1,250,231,255,-1,250,255,251,-1,251,255,252,-1,251,252,253,-1,253,252,2,-1,253,2,1,-1,99,98,256,-1,256,98,251,-1,256,251,257,-1,257,251,254,-1,257,254,116,-1,116,254,117,-1,95,109,258,-1,98,95,251,-1,251,95,258,-1,251,258,259,-1,259,258,260,-1,259,260,42,-1,42,260,44,-1,261,93,18,-1,262,259,263,-1,263,259,42,-1,263,42,41,-1,158,157,264,-1,264,157,265,-1,49,48,262,-1,262,48,266,-1,262,266,259,-1,259,266,261,-1,259,261,267,-1,267,261,18,-1,267,18,145,-1,170,169,268,-1,268,169,245,-1,268,245,265,-1,265,245,259,-1,265,259,264,-1,264,259,267,-1,269,270,251,-1,271,272,247,-1,270,273,251,-1,251,273,274,-1,251,274,275,-1,272,276,247,-1,247,276,277,-1,247,277,278,-1,269,251,279,-1,279,251,259,-1,279,259,280,-1,281,282,245,-1,245,282,283,-1,283,284,245,-1,245,284,285,-1,245,285,259,-1,259,285,286,-1,259,286,280,-1,275,287,251,-1,251,287,288,-1,251,288,247,-1,247,288,289,-1,247,289,271,-1,278,290,247,-1,247,290,291,-1,247,291,245,-1,245,291,292,-1,245,292,281,-1,
        ]
    }
}
Shape{
    appearance Appearance {
        material  Material {
            diffuseColor 0.6666666666666666 0.6666666666666666 0.6666666666666666
            specularColor 0.4666666666666667 0.4666666666666667 0.4666666666666667
            ambientIntensity 0.6667
            transparency 0.0
            shininess 0.5
        }
    }
    geometry IndexedFaceSet {
        ccw TRUE
        solid FALSE
        coord DEF co Coordinate {
            point [
                0.3441 0.3937 0.0394, 0.3441 0.3941 0.0394, 0.2465 0.3937 0.0394, 0.2465 0.3941 0.0394, 0.3441 0.2457 0.0004, 0.3441 0.2457 0.0, 0.3441 0.3937 0.0004, 0.3441 0.3941 0.0, 0.2465 0.3937 0.0004, 0.2465 0.3941 0.0, 0.2465 0.2457 0.0004, 0.2465 0.2457 0.0, 0.2481 0.233 0.0, 0.2481 0.233 0.0004, 0.253 0.2213 0.0, 0.253 0.2213 0.0004, 0.2608 0.2111 0.0, 0.2608 0.2111 0.0004, 0.2709 0.2034 0.0, 0.2709 0.2034 0.0004, 0.2826 0.1985 0.0, 0.2826 0.1985 0.0004, 0.2953 0.1969 0.0, 0.2953 0.1969 0.0004, 0.3079 0.1985 0.0, 0.3079 0.1985 0.0004, 0.3197 0.2034 0.0, 0.3197 0.2034 0.0004, 0.3298 0.2111 0.0, 0.3298 0.2111 0.0004, 0.3376 0.2213 0.0, 0.3376 0.2213 0.0004, 0.3424 0.233 0.0, 0.3424 0.233 0.0004, 0.1472 0.3937 0.0394, 0.1472 0.3941 0.0394, 0.0496 0.3937 0.0394, 0.0496 0.3941 0.0394, 0.1472 0.2457 0.0004, 0.1472 0.2457 0.0, 0.1472 0.3937 0.0004, 0.1472 0.3941 0.0, 0.0496 0.3937 0.0004, 0.0496 0.3941 0.0, 0.0496 0.2457 0.0004, 0.0496 0.2457 0.0, 0.0513 0.233 0.0, 0.0513 0.233 0.0004, 0.0561 0.2213 0.0, 0.0561 0.2213 0.0004, 0.0639 0.2111 0.0, 0.0639 0.2111 0.0004, 0.074 0.2034 0.0, 0.074 0.2034 0.0004, 0.0858 0.1985 0.0, 0.0858 0.1985 0.0004, 0.0984 0.1969 0.0, 0.0984 0.1969 0.0004, 0.1111 0.1985 0.0, 0.1111 0.1985 0.0004, 0.1228 0.2034 0.0, 0.1228 0.2034 0.0004, 0.1329 0.2111 0.0, 0.1329 0.2111 0.0004, 0.1407 0.2213 0.0, 0.1407 0.2213 0.0004, 0.1456 0.233 0.0, 0.1456 0.233 0.0004, -0.0496 0.3937 0.0394, -0.0496 0.3941 0.0394, -0.1472 0.3937 0.0394, -0.1472 0.3941 0.0394, -0.0496 0.2457 0.0004, -0.0496 0.2457 0.0, -0.0496 0.3937 0.0004, -0.0496 0.3941 0.0, -0.1472 0.3937 0.0004, -0.1472 0.3941 0.0, -0.1472 0.2457 0.0004, -0.1472 0.2457 0.0, -0.1456 0.233 0.0, -0.1456 0.233 0.0004, -0.1407 0.2213 0.0, -0.1407 0.2213 0.0004, -0.1329 0.2111 0.0, -0.1329 0.2111 0.0004, -0.1228 0.2034 0.0, -0.1228 0.2034 0.0004, -0.1111 0.1985 0.0, -0.1111 0.1985 0.0004, -0.0984 0.1969 0.0, -0.0984 0.1969 0.0004, -0.0858 0.1985 0.0, -0.0858 0.1985 0.0004, -0.074 0.2034 0.0, -0.074 0.2034 0.0004, -0.0639 0.2111 0.0, -0.0639 0.2111 0.0004, -0.0561 0.2213 0.0, -0.0561 0.2213 0.0004, -0.0513 0.233 0.0, -0.0513 0.233 0.0004, -0.2465 0.3937 0.0394, -0.2465 0.3941 0.0394, -0.3441 0.3937 0.0394, -0.3441 0.3941 0.0394, -0.2465 0.2457 0.0004, -0.2465 0.2457 0.0, -0.2465 0.3937 0.0004, -0.2465 0.3941 0.0, -0.3441 0.3937 0.0004, -0.3441 0.3941 0.0, -0.3441 0.2457 0.0004, -0.3441 0.2457 0.0, -0.3424 0.233 0.0, -0.3424 0.233 0.0004, -0.3376 0.2213 0.0, -0.3376 0.2213 0.0004, -0.3298 0.2111 0.0, -0.3298 0.2111 0.0004, -0.3197 0.2034 0.0, -0.3197 0.2034 0.0004, -0.3079 0.1985 0.0, -0.3079 0.1985 0.0004, -0.2953 0.1969 0.0, -0.2953 0.1969 0.0004, -0.2826 0.1985 0.0, -0.2826 0.1985 0.0004, -0.2709 0.2034 0.0, -0.2709 0.2034 0.0004, -0.2608 0.2111 0.0, -0.2608 0.2111 0.0004, -0.253 0.2213 0.0, -0.253 0.2213 0.0004, -0.2481 0.233 0.0, -0.2481 0.233 0.0004, 0.2465 -0.3937 0.0394, 0.2465 -0.3941 0.0394, 0.3441 -0.3937 0.0394, 0.3441 -0.3941 0.0394, 0.2465 -0.2457 0.0004, 0.2465 -0.2457 0.0, 0.2465 -0.3937 0.0004, 0.2465 -0.3941 0.0, 0.3441 -0.3937 0.0004, 0.3441 -0.3941 0.0, 0.3441 -0.2457 0.0004, 0.3441 -0.2457 0.0, 0.3424 -0.233 0.0, 0.3424 -0.233 0.0004, 0.3376 -0.2213 0.0, 0.3376 -0.2213 0.0004, 0.3298 -0.2111 0.0, 0.3298 -0.2111 0.0004, 0.3197 -0.2034 0.0, 0.3197 -0.2034 0.0004, 0.3079 -0.1985 0.0, 0.3079 -0.1985 0.0004, 0.2953 -0.1969 0.0, 0.2953 -0.1969 0.0004, 0.2826 -0.1985 0.0, 0.2826 -0.1985 0.0004, 0.2709 -0.2034 0.0, 0.2709 -0.2034 0.0004, 0.2608 -0.2111 0.0, 0.2608 -0.2111 0.0004, 0.253 -0.2213 0.0, 0.253 -0.2213 0.0004, 0.2481 -0.233 0.0, 0.2481 -0.233 0.0004, 0.0496 -0.3937 0.0394, 0.0496 -0.3941 0.0394, 0.1472 -0.3937 0.0394, 0.1472 -0.3941 0.0394, 0.0496 -0.2457 0.0004, 0.0496 -0.2457 0.0, 0.0496 -0.3937 0.0004, 0.0496 -0.3941 0.0, 0.1472 -0.3937 0.0004, 0.1472 -0.3941 0.0, 0.1472 -0.2457 0.0004, 0.1472 -0.2457 0.0, 0.1456 -0.233 0.0, 0.1456 -0.233 0.0004, 0.1407 -0.2213 0.0, 0.1407 -0.2213 0.0004, 0.1329 -0.2111 0.0, 0.1329 -0.2111 0.0004, 0.1228 -0.2034 0.0, 0.1228 -0.2034 0.0004, 0.1111 -0.1985 0.0, 0.1111 -0.1985 0.0004, 0.0984 -0.1969 0.0, 0.0984 -0.1969 0.0004, 0.0858 -0.1985 0.0, 0.0858 -0.1985 0.0004, 0.074 -0.2034 0.0, 0.074 -0.2034 0.0004, 0.0639 -0.2111 0.0, 0.0639 -0.2111 0.0004, 0.0561 -0.2213 0.0, 0.0561 -0.2213 0.0004, 0.0513 -0.233 0.0, 0.0513 -0.233 0.0004, -0.1472 -0.3937 0.0394, -0.1472 -0.3941 0.0394, -0.0496 -0.3937 0.0394, -0.0496 -0.3941 0.0394, -0.1472 -0.2457 0.0004, -0.1472 -0.2457 0.0, -0.1472 -0.3937 0.0004, -0.1472 -0.3941 0.0, -0.0496 -0.3937 0.0004, -0.0496 -0.3941 0.0, -0.0496 -0.2457 0.0004, -0.0496 -0.2457 0.0, -0.0513 -0.233 0.0, -0.0513 -0.233 0.0004, -0.0561 -0.2213 0.0, -0.0561 -0.2213 0.0004, -0.0639 -0.2111 0.0, -0.0639 -0.2111 0.0004, -0.074 -0.2034 0.0, -0.074 -0.2034 0.0004, -0.0858 -0.1985 0.0, -0.0858 -0.1985 0.0004, -0.0984 -0.1969 0.0, -0.0984 -0.1969 0.0004, -0.1111 -0.1985 0.0, -0.1111 -0.1985 0.0004, -0.1228 -0.2034 0.0, -0.1228 -0.2034 0.0004, -0.1329 -0.2111 0.0, -0.1329 -0.2111 0.0004, -0.1407 -0.2213 0.0, -0.1407 -0.2213 0.0004, -0.1456 -0.233 0.0, -0.1456 -0.233 0.0004, -0.3441 -0.3937 0.0394, -0.3441 -0.3941 0.0394, -0.2465 -0.3937 0.0394, -0.2465 -0.3941 0.0394, -0.3441 -0.2457 0.0004, -0.3441 -0.2457 0.0, -0.3441 -0.3937 0.0004, -0.3441 -0.3941 0.0, -0.2465 -0.3937 0.0004, -0.2465 -0.3941 0.0, -0.2465 -0.2457 0.0004, -0.2465 -0.2457 0.0, -0.2481 -0.233 0.0, -0.2481 -0.233 0.0004, -0.253 -0.2213 0.0, -0.253 -0.2213 0.0004, -0.2608 -0.2111 0.0, -0.2608 -0.2111 0.0004, -0.2709 -0.2034 0.0, -0.2709 -0.2034 0.0004, -0.2826 -0.1985 0.0, -0.2826 -0.1985 0.0004, -0.2953 -0.1969 0.0, -0.2953 -0.1969 0.0004, -0.3079 -0.1985 0.0, -0.3079 -0.1985 0.0004, -0.3197 -0.2034 0.0, -0.3197 -0.2034 0.0004, -0.3298 -0.2111 0.0, -0.3298 -0.2111 0.0004, -0.3376 -0.2213 0.0, -0.3376 -0.2213 0.0004, -0.3424 -0.233 0.0, -0.3424 -0.233 0.0004, 0.3937 -0.0488 0.0394, 0.3941 -0.0488 0.0394, 0.3937 0.0488 0.0394, 0.3941 0.0488 0.0394, 0.1669 0.0488 0.0004, 0.1669 0.0488 0.0, 0.1543 0.0472 0.0, 0.1543 0.0472 0.0004, 0.1425 0.0423 0.0, 0.1425 0.0423 0.0004, 0.1324 0.0345 0.0, 0.1324 0.0345 0.0004, 0.1247 0.0244 0.0, 0.1247 0.0244 0.0004, 0.1198 0.0126 0.0, 0.1198 0.0126 0.0004, 0.1181 0.0 0.0, 0.1181 0.0 0.0004, 0.1198 -0.0126 0.0, 0.1198 -0.0126 0.0004, 0.1247 -0.0244 0.0, 0.1247 -0.0244 0.0004, 0.1324 -0.0345 0.0, 0.1324 -0.0345 0.0004, 0.1425 -0.0423 0.0, 0.1425 -0.0423 0.0004, 0.1543 -0.0472 0.0, 0.1543 -0.0472 0.0004, 0.1669 -0.0488 0.0, 0.1669 -0.0488 0.0004, 0.3937 -0.0488 0.0004, 0.3941 -0.0488 0.0, 0.3941 0.0488 0.0, 0.3937 0.0488 0.0004, -0.3937 0.0488 0.0394, -0.3941 0.0488 0.0394, -0.3937 -0.0488 0.0394, -0.3941 -0.0488 0.0394, -0.1669 -0.0488 0.0004, -0.1669 -0.0488 0.0, -0.1543 -0.0472 0.0, -0.1543 -0.0472 0.0004, -0.1425 -0.0423 0.0, -0.1425 -0.0423 0.0004, -0.1324 -0.0345 0.0, -0.1324 -0.0345 0.0004, -0.1247 -0.0244 0.0, -0.1247 -0.0244 0.0004, -0.1198 -0.0126 0.0, -0.1198 -0.0126 0.0004, -0.1181 0.0 0.0, -0.1181 0.0 0.0004, -0.1198 0.0126 0.0, -0.1198 0.0126 0.0004, -0.1247 0.0244 0.0, -0.1247 0.0244 0.0004, -0.1324 0.0345 0.0, -0.1324 0.0345 0.0004, -0.1425 0.0423 0.0, -0.1425 0.0423 0.0004, -0.1543 0.0472 0.0, -0.1543 0.0472 0.0004, -0.1669 0.0488 0.0, -0.1669 0.0488 0.0004, -0.3937 0.0488 0.0004, -0.3941 0.0488 0.0, -0.3941 -0.0488 0.0, -0.3937 -0.0488 0.0004
            ]
        }
        coordIndex [
            0,1,2,-1,2,1,3,-1,4,5,6,-1,6,5,7,-1,6,7,0,-1,0,7,1,-1,2,3,8,-1,8,3,9,-1,8,9,10,-1,10,9,11,-1,10,11,12,-1,10,12,13,-1,13,12,14,-1,13,14,15,-1,15,14,16,-1,15,16,17,-1,17,16,18,-1,17,18,19,-1,19,18,20,-1,19,20,21,-1,21,20,22,-1,21,22,23,-1,23,22,24,-1,23,24,25,-1,25,24,26,-1,25,26,27,-1,27,26,28,-1,27,28,29,-1,29,28,30,-1,29,30,31,-1,31,30,32,-1,31,32,33,-1,33,32,5,-1,33,5,4,-1,3,1,9,-1,9,1,7,-1,11,9,7,-1,7,5,11,-1,11,5,32,-1,11,32,30,-1,30,28,11,-1,11,28,26,-1,11,26,12,-1,18,16,20,-1,20,16,14,-1,20,14,22,-1,12,26,14,-1,14,26,24,-1,14,24,22,-1,34,35,36,-1,36,35,37,-1,38,39,40,-1,40,39,41,-1,40,41,34,-1,34,41,35,-1,36,37,42,-1,42,37,43,-1,42,43,44,-1,44,43,45,-1,44,45,46,-1,44,46,47,-1,47,46,48,-1,47,48,49,-1,49,48,50,-1,49,50,51,-1,51,50,52,-1,51,52,53,-1,53,52,54,-1,53,54,55,-1,55,54,56,-1,55,56,57,-1,57,56,58,-1,57,58,59,-1,59,58,60,-1,59,60,61,-1,61,60,62,-1,61,62,63,-1,63,62,64,-1,63,64,65,-1,65,64,66,-1,65,66,67,-1,67,66,39,-1,67,39,38,-1,37,35,43,-1,43,35,41,-1,43,41,45,-1,45,41,39,-1,39,66,45,-1,45,66,64,-1,45,64,62,-1,62,60,45,-1,45,60,58,-1,45,58,56,-1,56,54,45,-1,45,54,52,-1,45,52,46,-1,46,52,50,-1,46,50,48,-1,68,69,70,-1,70,69,71,-1,72,73,74,-1,74,73,75,-1,74,75,68,-1,68,75,69,-1,70,71,76,-1,76,71,77,-1,76,77,78,-1,78,77,79,-1,78,79,80,-1,78,80,81,-1,81,80,82,-1,81,82,83,-1,83,82,84,-1,83,84,85,-1,85,84,86,-1,85,86,87,-1,87,86,88,-1,87,88,89,-1,89,88,90,-1,89,90,91,-1,91,90,92,-1,91,92,93,-1,93,92,94,-1,93,94,95,-1,95,94,96,-1,95,96,97,-1,97,96,98,-1,97,98,99,-1,99,98,100,-1,99,100,101,-1,101,100,73,-1,101,73,72,-1,71,69,77,-1,77,69,75,-1,79,77,75,-1,75,73,79,-1,79,73,100,-1,79,100,98,-1,98,96,79,-1,79,96,94,-1,79,94,92,-1,92,90,79,-1,79,90,88,-1,79,88,86,-1,86,84,79,-1,79,84,82,-1,79,82,80,-1,102,103,104,-1,104,103,105,-1,106,107,108,-1,108,107,109,-1,108,109,102,-1,102,109,103,-1,104,105,110,-1,110,105,111,-1,110,111,112,-1,112,111,113,-1,112,113,114,-1,112,114,115,-1,115,114,116,-1,115,116,117,-1,117,116,118,-1,117,118,119,-1,119,118,120,-1,119,120,121,-1,121,120,122,-1,121,122,123,-1,123,122,124,-1,123,124,125,-1,125,124,126,-1,125,126,127,-1,127,126,128,-1,127,128,129,-1,129,128,130,-1,129,130,131,-1,131,130,132,-1,131,132,133,-1,133,132,134,-1,133,134,135,-1,135,134,107,-1,135,107,106,-1,105,103,111,-1,111,103,109,-1,113,111,109,-1,109,107,113,-1,113,107,134,-1,113,134,132,-1,132,130,113,-1,113,130,128,-1,113,128,114,-1,120,118,122,-1,122,118,116,-1,122,116,124,-1,114,128,116,-1,116,128,126,-1,116,126,124,-1,136,137,138,-1,138,137,139,-1,140,141,142,-1,142,141,143,-1,142,143,136,-1,136,143,137,-1,138,139,144,-1,144,139,145,-1,144,145,146,-1,146,145,147,-1,146,147,148,-1,146,148,149,-1,149,148,150,-1,149,150,151,-1,151,150,152,-1,151,152,153,-1,153,152,154,-1,153,154,155,-1,155,154,156,-1,155,156,157,-1,157,156,158,-1,157,158,159,-1,159,158,160,-1,159,160,161,-1,161,160,162,-1,161,162,163,-1,163,162,164,-1,163,164,165,-1,165,164,166,-1,165,166,167,-1,167,166,168,-1,167,168,169,-1,169,168,141,-1,169,141,140,-1,139,137,145,-1,145,137,143,-1,145,143,147,-1,147,143,141,-1,147,141,148,-1,148,141,150,-1,168,154,141,-1,141,154,152,-1,141,152,150,-1,158,164,160,-1,160,164,162,-1,168,166,154,-1,154,166,164,-1,154,164,156,-1,156,164,158,-1,170,171,172,-1,172,171,173,-1,174,175,176,-1,176,175,177,-1,176,177,170,-1,170,177,171,-1,172,173,178,-1,178,173,179,-1,178,179,180,-1,180,179,181,-1,180,181,182,-1,180,182,183,-1,183,182,184,-1,183,184,185,-1,185,184,186,-1,185,186,187,-1,187,186,188,-1,187,188,189,-1,189,188,190,-1,189,190,191,-1,191,190,192,-1,191,192,193,-1,193,192,194,-1,193,194,195,-1,195,194,196,-1,195,196,197,-1,197,196,198,-1,197,198,199,-1,199,198,200,-1,199,200,201,-1,201,200,202,-1,201,202,203,-1,203,202,175,-1,203,175,174,-1,173,171,179,-1,179,171,177,-1,179,177,181,-1,181,177,175,-1,175,202,181,-1,181,202,200,-1,181,200,198,-1,198,196,181,-1,181,196,194,-1,181,194,192,-1,188,186,184,-1,192,190,181,-1,181,190,188,-1,181,188,182,-1,182,188,184,-1,204,205,206,-1,206,205,207,-1,208,209,210,-1,210,209,211,-1,210,211,204,-1,204,211,205,-1,206,207,212,-1,212,207,213,-1,212,213,214,-1,214,213,215,-1,214,215,216,-1,214,216,217,-1,217,216,218,-1,217,218,219,-1,219,218,220,-1,219,220,221,-1,221,220,222,-1,221,222,223,-1,223,222,224,-1,223,224,225,-1,225,224,226,-1,225,226,227,-1,227,226,228,-1,227,228,229,-1,229,228,230,-1,229,230,231,-1,231,230,232,-1,231,232,233,-1,233,232,234,-1,233,234,235,-1,235,234,236,-1,235,236,237,-1,237,236,209,-1,237,209,208,-1,207,205,213,-1,213,205,211,-1,216,215,226,-1,213,211,215,-1,215,211,209,-1,209,236,215,-1,215,236,234,-1,215,234,232,-1,232,230,215,-1,215,230,228,-1,215,228,226,-1,226,224,216,-1,216,224,222,-1,216,222,218,-1,218,222,220,-1,238,239,240,-1,240,239,241,-1,242,243,244,-1,244,243,245,-1,244,245,238,-1,238,245,239,-1,240,241,246,-1,246,241,247,-1,246,247,248,-1,248,247,249,-1,248,249,250,-1,248,250,251,-1,251,250,252,-1,251,252,253,-1,253,252,254,-1,253,254,255,-1,255,254,256,-1,255,256,257,-1,257,256,258,-1,257,258,259,-1,259,258,260,-1,259,260,261,-1,261,260,262,-1,261,262,263,-1,263,262,264,-1,263,264,265,-1,265,264,266,-1,265,266,267,-1,267,266,268,-1,267,268,269,-1,269,268,270,-1,269,270,271,-1,271,270,243,-1,271,243,242,-1,241,239,247,-1,247,239,245,-1,247,245,249,-1,249,245,243,-1,249,243,250,-1,250,243,252,-1,270,256,243,-1,243,256,254,-1,243,254,252,-1,260,266,262,-1,262,266,264,-1,270,268,256,-1,256,268,266,-1,256,266,258,-1,258,266,260,-1,272,273,274,-1,274,273,275,-1,276,277,278,-1,276,278,279,-1,279,278,280,-1,279,280,281,-1,281,280,282,-1,281,282,283,-1,283,282,284,-1,283,284,285,-1,285,284,286,-1,285,286,287,-1,287,286,288,-1,287,288,289,-1,289,288,290,-1,289,290,291,-1,291,290,292,-1,291,292,293,-1,293,292,294,-1,293,294,295,-1,295,294,296,-1,295,296,297,-1,297,296,298,-1,297,298,299,-1,299,298,300,-1,299,300,301,-1,301,300,302,-1,302,300,303,-1,302,303,272,-1,272,303,273,-1,275,273,304,-1,304,273,303,-1,274,275,305,-1,305,275,304,-1,305,304,276,-1,276,304,277,-1,277,304,303,-1,303,300,277,-1,277,300,298,-1,277,298,296,-1,296,294,277,-1,277,294,292,-1,277,292,290,-1,282,280,284,-1,284,280,286,-1,290,288,277,-1,277,288,286,-1,277,286,278,-1,278,286,280,-1,306,307,308,-1,308,307,309,-1,310,311,312,-1,310,312,313,-1,313,312,314,-1,313,314,315,-1,315,314,316,-1,315,316,317,-1,317,316,318,-1,317,318,319,-1,319,318,320,-1,319,320,321,-1,321,320,322,-1,321,322,323,-1,323,322,324,-1,323,324,325,-1,325,324,326,-1,325,326,327,-1,327,326,328,-1,327,328,329,-1,329,328,330,-1,329,330,331,-1,331,330,332,-1,331,332,333,-1,333,332,334,-1,333,334,335,-1,335,334,336,-1,336,334,337,-1,336,337,306,-1,306,337,307,-1,309,307,338,-1,338,307,337,-1,308,309,339,-1,339,309,338,-1,339,338,310,-1,310,338,311,-1,338,337,311,-1,311,337,334,-1,334,332,311,-1,311,332,330,-1,311,330,328,-1,314,320,316,-1,316,320,318,-1,314,312,320,-1,320,312,311,-1,320,311,322,-1,328,326,311,-1,311,326,324,-1,311,324,322,-1,
        ]
    }
}
Shape{
    appearance Appearance {
        material  Material {
            diffuseColor 0.34901960784313724 0.34901960784313724 0.34901960784313724
            specularColor 0.023529411764705882 0.023529411764705882 0.023529411764705882
            ambientIntensity 0.498
            transparency 0.0
            shininess 0.5
        }
    }
    geometry IndexedFaceSet {
        ccw TRUE
        solid FALSE
        coord DEF co Coordinate {
            point [
                -0.2362 -0.2756 0.1894, -0.2362 -0.2756 0.1972, -0.2376 -0.2654 0.1894, -0.2376 -0.2654 0.1972, -0.2415 -0.2559 0.1894, -0.2415 -0.2559 0.1972, -0.2478 -0.2478 0.1894, -0.2478 -0.2478 0.1972, -0.2559 -0.2415 0.1894, -0.2559 -0.2415 0.1972, -0.2654 -0.2376 0.1894, -0.2654 -0.2376 0.1972, -0.2756 -0.2362 0.1894, -0.2756 -0.2362 0.1972, -0.2858 -0.2376 0.1894, -0.2858 -0.2376 0.1972, -0.2953 -0.2415 0.1894, -0.2953 -0.2415 0.1972, -0.3034 -0.2478 0.1894, -0.3034 -0.2478 0.1972, -0.3097 -0.2559 0.1894, -0.3097 -0.2559 0.1972, -0.3136 -0.2654 0.1894, -0.3136 -0.2654 0.1972, -0.315 -0.2756 0.1894, -0.315 -0.2756 0.1972, -0.3136 -0.2858 0.1894, -0.3136 -0.2858 0.1972, -0.3097 -0.2953 0.1894, -0.3097 -0.2953 0.1972, -0.3034 -0.3034 0.1894, -0.3034 -0.3034 0.1972, -0.2953 -0.3097 0.1894, -0.2953 -0.3097 0.1972, -0.2858 -0.3136 0.1894, -0.2858 -0.3136 0.1972, -0.2756 -0.315 0.1894, -0.2756 -0.315 0.1972, -0.2654 -0.3136 0.1894, -0.2654 -0.3136 0.1972, -0.2559 -0.3097 0.1894, -0.2559 -0.3097 0.1972, -0.2478 -0.3034 0.1894, -0.2478 -0.3034 0.1972, -0.2415 -0.2953 0.1894, -0.2415 -0.2953 0.1972, -0.2376 -0.2858 0.1894, -0.2376 -0.2858 0.1972, -0.2756 -0.2756 0.1894
            ]
        }
        coordIndex [
            0,1,2,-1,2,1,3,-1,2,3,4,-1,4,3,5,-1,4,5,6,-1,6,5,7,-1,6,7,8,-1,8,7,9,-1,8,9,10,-1,10,9,11,-1,10,11,12,-1,12,11,13,-1,12,13,14,-1,14,13,15,-1,14,15,16,-1,16,15,17,-1,16,17,18,-1,18,17,19,-1,18,19,20,-1,20,19,21,-1,20,21,22,-1,22,21,23,-1,22,23,24,-1,24,23,25,-1,24,25,26,-1,26,25,27,-1,26,27,28,-1,28,27,29,-1,28,29,30,-1,30,29,31,-1,30,31,32,-1,32,31,33,-1,32,33,34,-1,34,33,35,-1,34,35,36,-1,36,35,37,-1,36,37,38,-1,38,37,39,-1,38,39,40,-1,40,39,41,-1,40,41,42,-1,42,41,43,-1,42,43,44,-1,44,43,45,-1,44,45,46,-1,46,45,47,-1,46,47,0,-1,0,47,1,-1,44,46,48,-1,48,46,0,-1,48,0,2,-1,38,40,48,-1,48,40,42,-1,48,42,44,-1,32,34,48,-1,48,34,36,-1,48,36,38,-1,26,28,48,-1,48,28,30,-1,48,30,32,-1,20,22,48,-1,48,22,24,-1,48,24,26,-1,14,16,48,-1,48,16,18,-1,48,18,20,-1,8,10,48,-1,48,10,12,-1,48,12,14,-1,2,4,48,-1,48,4,6,-1,48,6,8,-1,
        ]
    }
}
Shape{
    appearance Appearance {
        material  Material {
            diffuseColor 1.0 1.0 1.0
            specularColor 0.8784313725490196 0.8784313725490196 0.8784313725490196
            ambientIntensity 1.0
            transparency 0.0
            shininess 0.5
        }
    }
    geometry IndexedFaceSet {
        ccw TRUE
        solid FALSE
        coord DEF co Coordinate {
            point [
                -0.1335 -0.0649 0.0083, -0.1642 -0.1436 0.0083, -0.1335 -0.0649 0.0004, -0.1642 -0.1436 0.0004, -0.1527 -0.1436 0.0083, -0.1527 -0.1436 0.0004, -0.1447 -0.1215 0.0083, -0.1447 -0.1215 0.0004, -0.1122 -0.1215 0.0083, -0.1122 -0.1215 0.0004, -0.1047 -0.1436 0.0083, -0.1047 -0.1436 0.0004, -0.0931 -0.1436 0.0083, -0.0931 -0.1436 0.0004, -0.1229 -0.0649 0.0083, -0.1229 -0.0649 0.0004, -0.1148 -0.1129 0.0083, -0.1412 -0.1129 0.0083, -0.1266 -0.08 0.0083, -0.1273 -0.0773 0.0083, -0.1278 -0.0745 0.0083, -0.1281 -0.0745 0.0083, -0.1286 -0.0773 0.0083, -0.1293 -0.08 0.0083, -0.1148 -0.1129 0.0004, -0.1412 -0.1129 0.0004, -0.1266 -0.08 0.0004, -0.1273 -0.0773 0.0004, -0.1278 -0.0745 0.0004, -0.1281 -0.0745 0.0004, -0.1286 -0.0773 0.0004, -0.1293 -0.08 0.0004, -0.0454 -0.1436 0.0083, -0.024 -0.1436 0.0083, -0.0454 -0.1436 0.0004, -0.024 -0.1436 0.0004, -0.024 -0.0649 0.0083, -0.024 -0.0649 0.0004, -0.0462 -0.0649 0.0083, -0.0462 -0.0649 0.0004, -0.0874 -0.1033 0.0083, -0.0874 -0.1033 0.0004, -0.0868 -0.0959 0.0004, -0.0868 -0.0959 0.0083, -0.0847 -0.0881 0.0004, -0.0847 -0.0881 0.0083, -0.0811 -0.0813 0.0004, -0.0811 -0.0813 0.0083, -0.0755 -0.0752 0.0004, -0.0755 -0.0752 0.0083, -0.0754 -0.0751 0.0004, -0.0754 -0.0751 0.0083, -0.0668 -0.0693 0.0004, -0.0668 -0.0693 0.0083, -0.0576 -0.0661 0.0004, -0.0576 -0.0661 0.0083, -0.0552 -0.1428 0.0004, -0.0552 -0.1428 0.0083, -0.0642 -0.1401 0.0004, -0.0642 -0.1401 0.0083, -0.0725 -0.1353 0.0004, -0.0725 -0.1353 0.0083, -0.0789 -0.1291 0.0004, -0.0789 -0.1291 0.0083, -0.0835 -0.122 0.0004, -0.0835 -0.122 0.0083, -0.0863 -0.1138 0.0004, -0.0863 -0.1138 0.0083, -0.0716 -0.0846 0.0083, -0.0678 -0.0805 0.0083, -0.062 -0.0768 0.0083, -0.0555 -0.0745 0.0083, -0.0462 -0.0735 0.0083, -0.0346 -0.0735 0.0083, -0.0346 -0.135 0.0083, -0.0457 -0.135 0.0083, -0.0541 -0.1342 0.0083, -0.0607 -0.1321 0.0083, -0.066 -0.1289 0.0083, -0.0705 -0.1246 0.0083, -0.0738 -0.1191 0.0083, -0.0761 -0.1117 0.0083, -0.0768 -0.1035 0.0083, -0.0762 -0.0956 0.0083, -0.0743 -0.0894 0.0083, -0.0462 -0.0735 0.0004, -0.0346 -0.0735 0.0004, -0.0555 -0.0745 0.0004, -0.062 -0.0768 0.0004, -0.0678 -0.0805 0.0004, -0.0716 -0.0846 0.0004, -0.0743 -0.0894 0.0004, -0.0762 -0.0956 0.0004, -0.0768 -0.1035 0.0004, -0.0761 -0.1117 0.0004, -0.0738 -0.1191 0.0004, -0.0705 -0.1246 0.0004, -0.066 -0.1289 0.0004, -0.0607 -0.1321 0.0004, -0.0541 -0.1342 0.0004, -0.0457 -0.135 0.0004, -0.0346 -0.135 0.0004, -0.0086 -0.135 0.0083, -0.0086 -0.1436 0.0083, -0.0086 -0.135 0.0004, -0.0086 -0.1436 0.0004, 0.0336 -0.1436 0.0083, 0.0336 -0.1436 0.0004, 0.0336 -0.0649 0.0083, 0.0336 -0.0649 0.0004, -0.0067 -0.0649 0.0083, -0.0067 -0.0649 0.0004, -0.0067 -0.0735 0.0083, -0.0067 -0.0735 0.0004, 0.023 -0.0735 0.0083, 0.023 -0.0735 0.0004, 0.023 -0.0994 0.0083, 0.023 -0.0994 0.0004, -0.0048 -0.0994 0.0083, -0.0048 -0.0994 0.0004, -0.0048 -0.1081 0.0083, -0.0048 -0.1081 0.0004, 0.023 -0.1081 0.0083, 0.023 -0.1081 0.0004, 0.023 -0.135 0.0083, 0.023 -0.135 0.0004, 0.049 -0.1309 0.0083, 0.049 -0.1395 0.0083, 0.049 -0.1309 0.0004, 0.049 -0.1395 0.0004, 0.0574 -0.143 0.0083, 0.0706 -0.1446 0.0083, 0.0706 -0.1446 0.0004, 0.0685 -0.1445 0.0004, 0.0685 -0.1445 0.0083, 0.0653 -0.1441 0.0004, 0.0574 -0.143 0.0004, 0.1075 -0.1057 0.0083, 0.1075 -0.1057 0.0004, 0.1068 -0.1148 0.0004, 0.1068 -0.1148 0.0083, 0.1044 -0.1232 0.0004, 0.1044 -0.1232 0.0083, 0.1002 -0.1307 0.0004, 0.1002 -0.1307 0.0083, 0.0943 -0.1369 0.0004, 0.0943 -0.1369 0.0083, 0.088 -0.1409 0.0004, 0.088 -0.1409 0.0083, 0.0803 -0.1436 0.0004, 0.0803 -0.1436 0.0083, 0.0753 -0.1441 0.0004, 0.0675 -0.0639 0.0083, 0.0675 -0.0639 0.0004, 0.0754 -0.0646 0.0004, 0.0754 -0.0646 0.0083, 0.0841 -0.0671 0.0004, 0.0841 -0.0671 0.0083, 0.0916 -0.0714 0.0004, 0.0916 -0.0714 0.0083, 0.0988 -0.0782 0.0004, 0.0988 -0.0782 0.0083, 0.1034 -0.0856 0.0004, 0.1034 -0.0856 0.0083, 0.1064 -0.0945 0.0004, 0.1064 -0.0945 0.0083, 0.049 -0.067 0.0083, 0.049 -0.067 0.0004, 0.0581 -0.0646 0.0004, 0.0581 -0.0646 0.0083, 0.049 -0.0776 0.0083, 0.049 -0.0776 0.0004, 0.0674 -0.0726 0.0083, 0.0674 -0.0726 0.0004, 0.0578 -0.0738 0.0004, 0.0578 -0.0738 0.0083, 0.097 -0.1051 0.0083, 0.097 -0.1051 0.0004, 0.0966 -0.099 0.0004, 0.0966 -0.099 0.0083, 0.0945 -0.0905 0.0004, 0.0945 -0.0905 0.0083, 0.0913 -0.0844 0.0004, 0.0913 -0.0844 0.0083, 0.0865 -0.0792 0.0004, 0.0865 -0.0792 0.0083, 0.0811 -0.0756 0.0004, 0.0811 -0.0756 0.0083, 0.0752 -0.0734 0.0004, 0.0752 -0.0734 0.0083, 0.0692 -0.1359 0.0083, 0.0692 -0.1359 0.0004, 0.0765 -0.1351 0.0004, 0.0765 -0.1351 0.0083, 0.0823 -0.133 0.0004, 0.0823 -0.133 0.0083, 0.0871 -0.1297 0.0004, 0.0871 -0.1297 0.0083, 0.0908 -0.1258 0.0004, 0.0908 -0.1258 0.0083, 0.094 -0.1204 0.0004, 0.094 -0.1204 0.0083, 0.0962 -0.1136 0.0004, 0.0962 -0.1136 0.0083, 0.0504 -0.1317 0.0004, 0.0504 -0.1317 0.0083, 0.0587 -0.1348 0.0004, 0.0587 -0.1348 0.0083, 0.1143 -0.135 0.0083, 0.1143 -0.1436 0.0083, 0.1143 -0.135 0.0004, 0.1143 -0.1436 0.0004, 0.1546 -0.1436 0.0083, 0.1546 -0.1436 0.0004, 0.1546 -0.0649 0.0083, 0.1546 -0.0649 0.0004, 0.144 -0.0649 0.0083, 0.144 -0.0649 0.0004, 0.144 -0.135 0.0083, 0.144 -0.135 0.0004
            ]
        }
        coordIndex [
            0,1,2,-1,2,1,3,-1,1,4,3,-1,3,4,5,-1,4,6,5,-1,5,6,7,-1,6,8,7,-1,7,8,9,-1,8,10,9,-1,9,10,11,-1,10,12,11,-1,11,12,13,-1,12,14,13,-1,13,14,15,-1,14,0,15,-1,15,0,2,-1,16,8,17,-1,17,8,6,-1,18,14,16,-1,16,14,12,-1,16,12,8,-1,8,12,10,-1,18,19,14,-1,14,19,20,-1,14,20,0,-1,0,20,21,-1,0,21,22,-1,22,23,0,-1,0,23,17,-1,0,17,1,-1,1,17,6,-1,1,6,4,-1,16,17,24,-1,24,17,25,-1,18,16,26,-1,26,16,24,-1,18,26,27,-1,18,27,19,-1,19,27,28,-1,19,28,20,-1,21,20,29,-1,29,20,28,-1,21,29,30,-1,21,30,22,-1,22,30,31,-1,22,31,23,-1,17,23,25,-1,25,23,31,-1,32,33,34,-1,34,33,35,-1,33,36,35,-1,35,36,37,-1,36,38,37,-1,37,38,39,-1,40,41,42,-1,40,42,43,-1,43,42,44,-1,43,44,45,-1,45,44,46,-1,45,46,47,-1,47,46,48,-1,47,48,49,-1,49,48,50,-1,49,50,51,-1,51,50,52,-1,51,52,53,-1,53,52,54,-1,53,54,55,-1,55,54,39,-1,55,39,38,-1,32,34,56,-1,32,56,57,-1,57,56,58,-1,57,58,59,-1,59,58,60,-1,59,60,61,-1,61,60,62,-1,61,62,63,-1,63,62,64,-1,63,64,65,-1,65,64,66,-1,65,66,67,-1,67,66,41,-1,67,41,40,-1,45,47,68,-1,68,47,49,-1,68,49,69,-1,69,49,51,-1,69,51,70,-1,70,51,53,-1,70,53,71,-1,71,53,55,-1,71,55,72,-1,72,55,38,-1,72,38,73,-1,73,38,36,-1,73,36,74,-1,74,36,33,-1,74,33,75,-1,75,33,32,-1,75,32,76,-1,76,32,57,-1,76,57,77,-1,77,57,59,-1,77,59,78,-1,78,59,61,-1,78,61,79,-1,79,61,63,-1,79,63,80,-1,80,63,65,-1,80,65,81,-1,81,65,67,-1,81,67,82,-1,82,67,40,-1,82,40,83,-1,83,40,43,-1,83,43,84,-1,84,43,45,-1,84,45,68,-1,72,73,85,-1,85,73,86,-1,72,85,87,-1,72,87,71,-1,71,87,88,-1,71,88,70,-1,70,88,89,-1,70,89,69,-1,69,89,90,-1,69,90,68,-1,68,90,91,-1,68,91,84,-1,84,91,92,-1,84,92,83,-1,83,92,93,-1,83,93,82,-1,82,93,94,-1,82,94,81,-1,81,94,95,-1,81,95,80,-1,80,95,96,-1,80,96,79,-1,79,96,97,-1,79,97,78,-1,78,97,98,-1,78,98,77,-1,77,98,99,-1,77,99,76,-1,76,99,100,-1,76,100,75,-1,74,75,101,-1,101,75,100,-1,73,74,86,-1,86,74,101,-1,102,103,104,-1,104,103,105,-1,103,106,105,-1,105,106,107,-1,106,108,107,-1,107,108,109,-1,108,110,109,-1,109,110,111,-1,110,112,111,-1,111,112,113,-1,112,114,113,-1,113,114,115,-1,114,116,115,-1,115,116,117,-1,116,118,117,-1,117,118,119,-1,118,120,119,-1,119,120,121,-1,120,122,121,-1,121,122,123,-1,122,124,123,-1,123,124,125,-1,124,102,125,-1,125,102,104,-1,106,103,102,-1,102,124,106,-1,106,124,122,-1,106,122,108,-1,112,110,114,-1,114,110,108,-1,114,108,116,-1,116,108,122,-1,116,122,118,-1,118,122,120,-1,126,127,128,-1,128,127,129,-1,129,127,130,-1,131,132,133,-1,131,133,134,-1,134,133,135,-1,134,135,130,-1,130,135,136,-1,130,136,129,-1,137,138,139,-1,137,139,140,-1,140,139,141,-1,140,141,142,-1,142,141,143,-1,142,143,144,-1,144,143,145,-1,144,145,146,-1,146,145,147,-1,146,147,148,-1,148,147,149,-1,148,149,150,-1,150,149,131,-1,131,149,151,-1,131,151,132,-1,152,153,154,-1,152,154,155,-1,155,154,156,-1,155,156,157,-1,157,156,158,-1,157,158,159,-1,159,158,160,-1,159,160,161,-1,161,160,162,-1,161,162,163,-1,163,162,164,-1,163,164,165,-1,165,164,138,-1,165,138,137,-1,166,167,168,-1,166,168,169,-1,169,168,153,-1,169,153,152,-1,166,170,167,-1,167,170,171,-1,172,173,174,-1,172,174,175,-1,175,174,171,-1,175,171,170,-1,176,177,178,-1,176,178,179,-1,179,178,180,-1,179,180,181,-1,181,180,182,-1,181,182,183,-1,183,182,184,-1,183,184,185,-1,185,184,186,-1,185,186,187,-1,187,186,188,-1,187,188,189,-1,189,188,173,-1,189,173,172,-1,190,191,192,-1,190,192,193,-1,193,192,194,-1,193,194,195,-1,195,194,196,-1,195,196,197,-1,197,196,198,-1,197,198,199,-1,199,198,200,-1,199,200,201,-1,201,200,202,-1,201,202,203,-1,203,202,177,-1,203,177,176,-1,126,128,204,-1,126,204,205,-1,205,204,206,-1,205,206,207,-1,207,206,191,-1,207,191,190,-1,193,131,190,-1,190,131,134,-1,190,134,207,-1,207,134,130,-1,207,130,205,-1,205,130,127,-1,205,127,126,-1,170,166,175,-1,175,166,169,-1,175,169,172,-1,172,169,152,-1,172,152,189,-1,189,152,155,-1,189,155,187,-1,187,155,157,-1,187,157,185,-1,185,157,159,-1,185,159,183,-1,183,159,161,-1,183,161,181,-1,181,161,163,-1,181,163,179,-1,179,163,165,-1,179,165,176,-1,176,165,137,-1,176,137,203,-1,203,137,140,-1,203,140,201,-1,201,140,142,-1,201,142,199,-1,199,142,144,-1,199,144,197,-1,197,144,146,-1,197,146,195,-1,195,146,148,-1,195,148,193,-1,193,148,150,-1,193,150,131,-1,208,209,210,-1,210,209,211,-1,209,212,211,-1,211,212,213,-1,212,214,213,-1,213,214,215,-1,214,216,215,-1,215,216,217,-1,216,218,217,-1,217,218,219,-1,218,208,219,-1,219,208,210,-1,216,214,218,-1,218,214,212,-1,218,212,208,-1,208,212,209,-1,
        ]
    }
}
Shape{
    appearance Appearance {
        material  Material {
            diffuseColor 0.20784313725490197 0.20784313725490197 0.20784313725490197
            specularColor 0.01568627450980392 0.01568627450980392 0.01568627450980392
            ambientIntensity 0.298
            transparency 0.0
            shininess 0.5
        }
    }
    geometry IndexedFaceSet {
        ccw TRUE
        solid FALSE
        coord DEF co Coordinate {
            point [
                -0.1148 -0.1129 0.0004, -0.1412 -0.1129 0.0004, -0.1266 -0.08 0.0004, -0.1293 -0.08 0.0004, -0.1273 -0.0773 0.0004, -0.1286 -0.0773 0.0004, -0.1278 -0.0745 0.0004, -0.1281 -0.0745 0.0004, -0.0346 -0.0735 0.0004, -0.0346 -0.135 0.0004, -0.0462 -0.0735 0.0004, -0.0457 -0.135 0.0004, -0.0541 -0.1342 0.0004, -0.0768 -0.1035 0.0004, -0.0762 -0.0956 0.0004, -0.0743 -0.0894 0.0004, -0.0555 -0.0745 0.0004, -0.0607 -0.1321 0.0004, -0.066 -0.1289 0.0004, -0.0705 -0.1246 0.0004, -0.0738 -0.1191 0.0004, -0.0761 -0.1117 0.0004, -0.0716 -0.0846 0.0004, -0.0678 -0.0805 0.0004, -0.062 -0.0768 0.0004
            ]
        }
        coordIndex [
            0,1,2,-1,2,1,3,-1,2,3,4,-1,4,3,5,-1,4,5,6,-1,6,5,7,-1,8,9,10,-1,10,9,11,-1,10,11,12,-1,13,14,10,-1,10,14,15,-1,10,15,16,-1,12,17,10,-1,10,17,18,-1,10,18,19,-1,19,20,10,-1,10,20,21,-1,10,21,13,-1,22,23,15,-1,15,23,24,-1,15,24,16,-1,
        ]
    }
}