#VRML V2.0 utf8
# 3D model generated by kicad-lcsc-manager
# Based on easyeda2kicad.py v1.0.1

Shape{
    appearance Appearance {
        material  Material {
            diffuseColor 0.14901960784313725 0.14901960784313725 0.14901960784313725
            specularColor 0.07450980392156863 0.07450980392156863 0.07450980392156863
            ambientIntensity 0.149
            transparency 0.0
            shininess 0.5
        }
    }
    geometry IndexedFaceSet {
        ccw TRUE
        solid FALSE
        coord DEF co Coordinate {
            point [
                2.5 0.7087 0.1969, 2.5 0.7067 0.1969, 1.5 0.7067 0.1969, -0.1223 -0.7874 0.1969, -0.1223 -0.626 0.1969, 0.0504 -0.626 0.1969, -0.1223 0.1994 0.1969, -0.1223 0.374 0.1969, 0.0504 0.374 0.1969, -0.8025 0.1969 0.1969, -0.7903 0.1994 0.1969, -0.8 0.1969 0.1969, -0.7903 0.1764 0.1969, -0.7259 0.0 0.1969, -0.7066 0.0 0.1969, -0.694 -0.1895 0.1969, -0.7903 -0.1895 0.1969, -0.7903 0.0631 0.1969, -0.7559 0.0631 0.1969, -0.1223 0.626 0.1969, -0.126 0.626 0.1969, -0.1337 0.7067 0.1969, -0.126 0.374 0.1969, -0.1337 0.1994 0.1969, -0.1223 0.7067 0.1969, 0.0504 0.7067 0.1969, 0.0504 0.626 0.1969, 0.126 0.626 0.1969, 0.5 0.7067 0.1969, 0.126 0.374 0.1969, 0.5 0.1994 0.1969, 0.0504 0.1994 0.1969, 0.126 -0.374 0.1969, 0.5 -0.7087 0.1969, 0.126 -0.626 0.1969, 0.4325 -0.7874 0.1969, 0.0504 -0.7874 0.1969, 0.0504 -0.1895 0.1969, 0.0504 -0.374 0.1969, -0.1223 -0.374 0.1969, 0.5675 0.7874 0.1969, 1.4325 0.7874 0.1969, 0.5 0.7087 0.1969, 1.5 0.7087 0.1969, 0.4325 0.7874 0.1969, -0.5 0.7087 0.1969, -0.3533 0.7067 0.1969, -0.694 0.7067 0.1969, -0.5675 0.7874 0.1969, -2.4325 0.7874 0.1969, -1.5675 0.7874 0.1969, -2.5 0.7087 0.1969, -1.5 0.7087 0.1969, -3.4325 0.7874 0.1969, -2.5675 0.7874 0.1969, -3.5 0.7087 0.1969, -3.5 0.7067 0.1969, -4.5 0.7067 0.1969, -4.5 0.7087 0.1969, -5.313 0.7067 0.1969, -4.5675 0.7874 0.1969, -5.5 0.7067 0.1969, -5.5 0.7087 0.1969, -5.313 0.7874 0.1969, -5.4325 0.7874 0.1969, -5.5 -0.1895 0.1969, -5.313 -0.1895 0.1969, -5.5 -0.7087 0.1969, -5.313 -0.7874 0.1969, -5.4325 -0.7874 0.1969, -3.874 -0.374 0.1969, -4.126 -0.374 0.1969, -4.5 -0.1895 0.1969, -4.874 -0.374 0.1969, -4.5 -0.7087 0.1969, -4.874 -0.626 0.1969, -4.5675 -0.7874 0.1969, -5.126 -0.626 0.1969, -5.126 -0.374 0.1969, -4.126 -0.626 0.1969, -3.5 -0.1895 0.1969, -3.5 -0.7087 0.1969, -3.874 -0.626 0.1969, -3.5675 -0.7874 0.1969, -4.4325 -0.7874 0.1969, -2.874 -0.374 0.1969, -2.5 -0.7087 0.1969, -2.874 -0.626 0.1969, -2.5675 -0.7874 0.1969, -3.126 -0.626 0.1969, -1.874 -0.374 0.1969, -2.126 -0.374 0.1969, -2.5 -0.1895 0.1969, -3.4325 -0.7874 0.1969, -3.126 -0.374 0.1969, -2.126 -0.626 0.1969, -1.5 -0.1895 0.1969, -1.5 -0.7087 0.1969, -1.874 -0.626 0.1969, -1.5675 -0.7874 0.1969, -2.4325 -0.7874 0.1969, -0.7903 -0.7874 0.1969, -1.4325 -0.7874 0.1969, -1.126 -0.626 0.1969, -1.126 -0.374 0.1969, -0.874 -0.374 0.1969, -0.874 -0.626 0.1969, -0.3533 -0.7874 0.1969, -0.4325 -0.7874 0.1969, -0.3533 -0.1895 0.1969, -0.5 -0.7087 0.1969, 1.126 -0.374 0.1969, 0.874 -0.374 0.1969, 0.5 -0.1895 0.1969, 0.874 -0.626 0.1969, 1.5 -0.1895 0.1969, 1.5 -0.7087 0.1969, 1.126 -0.626 0.1969, 1.4325 -0.7874 0.1969, 0.5675 -0.7874 0.1969, 2.126 -0.374 0.1969, 2.5 -0.7087 0.1969, 2.126 -0.626 0.1969, 2.4325 -0.7874 0.1969, 1.874 -0.626 0.1969, 3.126 -0.374 0.1969, 2.874 -0.374 0.1969, 2.5 -0.1895 0.1969, 1.5675 -0.7874 0.1969, 1.874 -0.374 0.1969, 2.874 -0.626 0.1969, 3.5 -0.1895 0.1969, 3.5 -0.7087 0.1969, 3.126 -0.626 0.1969, 3.4325 -0.7874 0.1969, 2.5675 -0.7874 0.1969, 4.126 -0.374 0.1969, 4.5 -0.7087 0.1969, 4.126 -0.626 0.1969, 4.4325 -0.7874 0.1969, 3.874 -0.626 0.1969, 5.126 -0.374 0.1969, 4.874 -0.374 0.1969, 4.5 -0.1895 0.1969, 3.5675 -0.7874 0.1969, 3.874 -0.374 0.1969, 4.874 -0.626 0.1969, 5.5 -0.1895 0.1969, 5.5 -0.7087 0.1969, 5.126 -0.626 0.1969, 5.4325 -0.7874 0.1969, 4.5675 -0.7874 0.1969, 4.5675 0.7874 0.1969, 5.4325 0.7874 0.1969, 4.5 0.7087 0.1969, 5.5 0.7087 0.1969, 3.5675 0.7874 0.1969, 4.4325 0.7874 0.1969, 3.5 0.7087 0.1969, 3.5 0.7067 0.1969, 2.5675 0.7874 0.1969, 3.4325 0.7874 0.1969, 1.5675 0.7874 0.1969, 2.4325 0.7874 0.1969, -0.3533 0.1994 0.1969, -0.3331 0.0362 0.1969, -0.2692 0.1994 0.1969, -0.2759 0.1986 0.1969, -0.2938 0.1924 0.1969, -0.3153 0.1794 0.1969, -0.1866 0.1847 0.1969, -0.2075 0.1953 0.1969, -0.2248 0.1994 0.1969, -0.2315 0.201 0.1969, -0.2472 0.2019 0.1969, -0.1594 0.1075 0.1969, -0.159 0.0982 0.1969, -0.2461 0.1817 0.1969, -0.3273 0.168 0.1969, -0.3331 0.1607 0.1969, -0.3177 0.048 0.1969, -0.1337 -0.1895 0.1969, -0.1932 0.0075 0.1969, -0.1742 0.0212 0.1969, -0.1413 0.0996 0.1969, -0.1446 0.1265 0.1969, -0.1637 0.1266 0.1969, -0.3158 0.018 0.1969, -0.2954 0.0052 0.1969, -0.273 -0.0024 0.1969, -0.1663 0.0294 0.1969, -0.152 0.051 0.1969, -0.1441 0.0736 0.1969, -0.1784 0.0448 0.1969, -0.1926 0.0318 0.1969, -0.2573 -0.0047 0.1969, -0.2475 -0.005 0.1969, -0.2168 -0.0015 0.1969, -0.1526 0.1473 0.1969, -0.1661 0.1667 0.1969, -0.3177 0.1489 0.1969, -0.3019 0.1642 0.1969, -0.3068 0.037 0.1969, -0.2834 0.1746 0.1969, -0.2894 0.025 0.1969, -0.2704 0.0179 0.1969, -0.2229 0.1788 0.1969, -0.2028 0.1711 0.1969, -0.1616 0.0765 0.1969, -0.1678 0.0602 0.1969, -0.2747 0.1777 0.1969, -0.253 0.1815 0.1969, -0.2317 0.0162 0.1969, -0.2117 0.0214 0.1969, -0.2474 0.0151 0.1969, -0.1847 0.1583 0.1969, -0.1724 0.1441 0.1969, -5.5 0.1994 0.1969, -5.313 0.1994 0.1969, -4.874 0.626 0.1969, -4.874 0.374 0.1969, -4.5 0.1994 0.1969, -5.126 0.374 0.1969, -5.126 0.626 0.1969, -3.874 0.626 0.1969, -3.874 0.374 0.1969, -3.5 0.1994 0.1969, -4.126 0.374 0.1969, -4.126 0.626 0.1969, -2.874 0.626 0.1969, -2.5 0.7067 0.1969, -2.874 0.374 0.1969, -2.5 0.1994 0.1969, -3.126 0.374 0.1969, -3.126 0.626 0.1969, -1.5 0.1994 0.1969, -1.874 0.374 0.1969, -2.126 0.374 0.1969, -2.126 0.626 0.1969, -1.874 0.626 0.1969, -1.5 0.7067 0.1969, -1.126 0.626 0.1969, -1.126 0.374 0.1969, -0.8451 0.0631 0.1969, -0.8742 0.0 0.1969, -0.8934 0.0 0.1969, -0.874 0.374 0.1969, -4.4325 0.7874 0.1969, -3.5675 0.7874 0.1969, -0.7903 0.7067 0.1969, -0.874 0.626 0.1969, -0.694 -0.7874 0.1969, -0.694 0.7874 0.1969, -0.7903 0.7874 0.1969, -1.4325 0.7874 0.1969, -0.5912 0.1956 0.1969, -0.6221 0.1898 0.1969, -0.694 0.1994 0.1969, -0.5199 0.1969 0.1969, -0.5596 0.1969 0.1969, -0.6786 0.0696 0.1969, -0.6709 0.0477 0.1969, -0.6575 0.0274 0.1969, -0.6428 0.0144 0.1969, -0.3912 0.1767 0.1969, -0.3912 0.1161 0.1969, -0.4846 0.1767 0.1969, -0.4846 0.1161 0.1969, -0.628 0.0068 0.1969, -0.604 0.0013 0.1969, -0.5809 0.0 0.1969, -0.4846 0.1969 0.1969, -0.5199 0.0 0.1969, -0.4846 0.0959 0.1969, -0.642 0.1797 0.1969, -0.6564 0.1672 0.1969, -0.6689 0.1494 0.1969, -0.5675 -0.7874 0.1969, -0.3912 0.0959 0.1969, -0.3912 0.0202 0.1969, -0.4846 0.0202 0.1969, -0.4846 0.0 0.1969, -0.3735 0.0 0.1969, -0.3735 0.1969 0.1969, -0.6772 0.1289 0.1969, -0.6811 0.1051 0.1969, -0.6814 0.0959 0.1969, -0.1337 -0.7874 0.1969, -0.0252 0.0 0.1969, -0.0252 0.1969 0.1969, -0.0429 0.1969 0.1969, -0.0429 0.0202 0.1969, -0.1186 0.0202 0.1969, -0.1186 0.0 0.1969, -0.1223 -0.1895 0.1969, -0.126 -0.626 0.1969, -0.126 -0.374 0.1969, 0.0504 0.7874 0.1969, -0.1223 0.7874 0.1969, -0.1337 0.7874 0.1969, -0.3533 0.7874 0.1969, -0.4325 0.7874 0.1969, 1.126 0.626 0.1969, 1.126 0.374 0.1969, 1.5 0.1994 0.1969, 0.874 0.374 0.1969, 0.874 0.626 0.1969, 2.126 0.626 0.1969, 2.126 0.374 0.1969, 2.5 0.1994 0.1969, 1.874 0.374 0.1969, 1.874 0.626 0.1969, 3.126 0.626 0.1969, 3.126 0.374 0.1969, 3.5 0.1994 0.1969, 2.874 0.374 0.1969, 2.874 0.626 0.1969, 5.5 0.7067 0.1969, 4.5 0.7067 0.1969, 3.874 0.626 0.1969, 3.874 0.374 0.1969, 4.5 0.1994 0.1969, 4.126 0.374 0.1969, 4.126 0.626 0.1969, 5.5 0.1994 0.1969, 5.126 0.626 0.1969, 5.126 0.374 0.1969, 4.874 0.374 0.1969, 4.874 0.626 0.1969, -5.313 -0.9268 1.0, -5.313 -0.8051 1.0, -5.4173 -0.8051 1.0, 1.874 0.626 1.0, 2.126 0.626 1.0, 2.2638 0.9843 1.0, 1.7362 0.9843 1.0, 1.5 0.7087 1.0, 1.874 0.374 1.0, 1.5 -0.0 1.0, 2.126 0.374 1.0, 2.5 -0.0 1.0, 2.5 0.7087 1.0, 2.874 0.626 1.0, 3.126 0.626 1.0, 3.2638 0.9843 1.0, 2.7362 0.9843 1.0, 2.874 0.374 1.0, 3.126 0.374 1.0, 3.5 -0.0 1.0, 3.5 0.7087 1.0, 3.874 0.626 1.0, 4.126 0.626 1.0, 4.2638 0.9843 1.0, 3.7362 0.9843 1.0, 3.874 0.374 1.0, 4.126 0.374 1.0, 4.5 -0.0 1.0, 4.5 0.7087 1.0, 4.874 0.626 1.0, 5.126 0.626 1.0, 5.2638 0.9843 1.0, 4.7362 0.9843 1.0, 4.874 0.374 1.0, 5.126 0.374 1.0, 5.5 -0.0 1.0, 5.5 0.7087 1.0, 5.126 -0.626 1.0, 4.874 -0.626 1.0, 4.5827 -0.8051 1.0, 5.4173 -0.8051 1.0, 5.5 -0.7087 1.0, 5.126 -0.374 1.0, 4.874 -0.374 1.0, 4.5 -0.7087 1.0, 4.7362 -0.9843 1.0, 5.2638 -0.9843 1.0, 4.126 -0.626 1.0, 3.874 -0.626 1.0, 3.5827 -0.8051 1.0, 4.4173 -0.8051 1.0, 4.126 -0.374 1.0, 3.874 -0.374 1.0, 3.5 -0.7087 1.0, 3.7362 -0.9843 1.0, 4.2638 -0.9843 1.0, 3.126 -0.626 1.0, 2.874 -0.626 1.0, 2.5827 -0.8051 1.0, 3.4173 -0.8051 1.0, 3.126 -0.374 1.0, 2.874 -0.374 1.0, 2.5 -0.7087 1.0, 2.7362 -0.9843 1.0, 3.2638 -0.9843 1.0, 2.126 -0.626 1.0, 1.874 -0.626 1.0, 1.5827 -0.8051 1.0, 2.4173 -0.8051 1.0, 2.126 -0.374 1.0, 1.874 -0.374 1.0, 1.5 -0.7087 1.0, 1.7362 -0.9843 1.0, 2.2638 -0.9843 1.0, 1.126 -0.626 1.0, 0.874 -0.626 1.0, 0.5827 -0.8051 1.0, 1.4173 -0.8051 1.0, 1.126 -0.374 1.0, 0.874 -0.374 1.0, 0.5 -0.0 1.0, 0.5 -0.7087 1.0, 0.7362 -0.9843 1.0, 1.2638 -0.9843 1.0, 0.126 -0.626 1.0, -0.126 -0.626 1.0, -0.4173 -0.8051 1.0, 0.4173 -0.8051 1.0, 0.126 -0.374 1.0, -0.126 -0.374 1.0, -0.5 -0.0 1.0, -0.5 -0.7087 1.0, -0.2638 -0.9843 1.0, 0.2638 -0.9843 1.0, -1.5 -0.7087 1.0, -1.874 -0.374 1.0, -1.5827 -0.8051 1.0, -1.874 -0.626 1.0, -2.126 -0.626 1.0, -2.4173 -0.8051 1.0, -0.874 -0.626 1.0, -1.126 -0.626 1.0, -1.4173 -0.8051 1.0, -1.126 -0.374 1.0, -2.126 -0.374 1.0, -2.5 -0.0 1.0, -2.5 -0.7087 1.0, -0.874 -0.374 1.0, -0.5827 -0.8051 1.0, -1.2638 -0.9843 1.0, -0.7362 -0.9843 1.0, -2.2638 -0.9843 1.0, -1.7362 -0.9843 1.0, -2.874 -0.626 1.0, -3.126 -0.626 1.0, -3.4173 -0.8051 1.0, -2.5827 -0.8051 1.0, -2.874 -0.374 1.0, -3.126 -0.374 1.0, -3.5 -0.0 1.0, -3.5 -0.7087 1.0, -3.2638 -0.9843 1.0, -2.7362 -0.9843 1.0, -3.874 -0.626 1.0, -4.126 -0.626 1.0, -4.4173 -0.8051 1.0, -3.5827 -0.8051 1.0, -3.874 -0.374 1.0, -4.126 -0.374 1.0, -4.5 -0.0 1.0, -4.5 -0.7087 1.0, -4.2638 -0.9843 1.0, -3.7362 -0.9843 1.0, -5.126 -0.626 1.0, -5.126 -0.374 1.0, -5.313 -0.0 1.0, -4.874 -0.374 1.0, -4.874 -0.626 1.0, -4.5827 -0.8051 1.0, -5.2638 -0.9843 1.0, -4.7362 -0.9843 1.0, -5.5 -0.7087 1.0, -5.313 0.9268 1.0, -5.5 0.7087 1.0, -5.5 -0.0 1.0, -4.5 0.7087 1.0, -4.7362 0.9843 1.0, -4.874 0.626 1.0, -5.2638 0.9843 1.0, -5.126 0.626 1.0, -5.126 0.374 1.0, -4.874 0.374 1.0, -4.126 0.626 1.0, -3.874 0.626 1.0, -3.7362 0.9843 1.0, -4.2638 0.9843 1.0, -4.126 0.374 1.0, -3.874 0.374 1.0, -3.5 0.7087 1.0, -3.126 0.626 1.0, -2.874 0.626 1.0, -2.7362 0.9843 1.0, -3.2638 0.9843 1.0, -3.126 0.374 1.0, -2.874 0.374 1.0, -2.5 0.7087 1.0, -0.874 0.626 1.0, -0.874 0.374 1.0, -1.7362 0.9843 1.0, -2.126 0.626 1.0, -1.5 0.7087 1.0, -1.874 0.626 1.0, -1.126 0.374 1.0, -1.874 0.374 1.0, -2.126 0.374 1.0, -2.2638 0.9843 1.0, -1.2638 0.9843 1.0, -1.126 0.626 1.0, -0.7362 0.9843 1.0, -0.5 0.7087 1.0, -0.126 0.626 1.0, 0.126 0.626 1.0, 0.2638 0.9843 1.0, -0.2638 0.9843 1.0, -0.126 0.374 1.0, 0.126 0.374 1.0, 0.5 0.7087 1.0, 0.874 0.626 1.0, 1.126 0.626 1.0, 1.2638 0.9843 1.0, 0.7362 0.9843 1.0, 0.874 0.374 1.0, 1.126 0.374 1.0, 1.4325 0.7874 0.0, 0.5675 0.7874 0.0, 1.2638 0.9843 0.0, 0.7362 0.9843 0.0, 0.4325 0.7874 0.0, -0.4325 0.7874 0.0, 0.2638 0.9843 0.0, -0.2638 0.9843 0.0, 3.4325 0.7874 0.0, 2.5675 0.7874 0.0, 3.2638 0.9843 0.0, 2.7362 0.9843 0.0, 1.7362 0.9843 0.0, 2.2638 0.9843 0.0, 1.5675 0.7874 0.0, 2.4325 0.7874 0.0, -2.5675 0.7874 0.0, -3.4325 0.7874 0.0, -2.7362 0.9843 0.0, -3.2638 0.9843 0.0, -3.5675 0.7874 0.0, -4.4325 0.7874 0.0, -3.7362 0.9843 0.0, -4.2638 0.9843 0.0, -0.5675 0.7874 0.0, -1.4325 0.7874 0.0, -0.7362 0.9843 0.0, -1.2638 0.9843 0.0, -2.2638 0.9843 0.0, -1.7362 0.9843 0.0, -2.4325 0.7874 0.0, -1.5675 0.7874 0.0, 3.7362 0.9843 0.0, 4.2638 0.9843 0.0, 3.5675 0.7874 0.0, 4.4325 0.7874 0.0, 1.2638 -0.9843 0.0, 0.7362 -0.9843 0.0, 0.2638 -0.9843 0.0, -0.2638 -0.9843 0.0, 3.2638 -0.9843 0.0, 2.7362 -0.9843 0.0, 1.7362 -0.9843 0.0, 2.2638 -0.9843 0.0, -2.7362 -0.9843 0.0, -3.2638 -0.9843 0.0, -3.7362 -0.9843 0.0, -4.2638 -0.9843 0.0, -0.7362 -0.9843 0.0, -1.2638 -0.9843 0.0, -2.2638 -0.9843 0.0, -1.7362 -0.9843 0.0, 3.7362 -0.9843 0.0, 4.2638 -0.9843 0.0, 1.4325 -0.7874 0.0, 0.5675 -0.7874 0.0, 0.4325 -0.7874 0.0, -0.4325 -0.7874 0.0, 3.4325 -0.7874 0.0, 2.5675 -0.7874 0.0, 1.5675 -0.7874 0.0, 2.4325 -0.7874 0.0, -2.5675 -0.7874 0.0, -3.4325 -0.7874 0.0, -3.5675 -0.7874 0.0, -4.4325 -0.7874 0.0, -0.5675 -0.7874 0.0, -1.4325 -0.7874 0.0, -2.4325 -0.7874 0.0, -1.5675 -0.7874 0.0, 3.5675 -0.7874 0.0, 4.4325 -0.7874 0.0, 5.4325 0.7874 0.0, 4.5675 0.7874 0.0, 5.2638 0.9843 0.0, 4.7362 0.9843 0.0, -5.4325 0.7874 0.0, -5.2638 0.9843 0.0, -4.5675 0.7874 0.0, -4.7362 0.9843 0.0, -4.5675 -0.7874 0.0, -4.7362 -0.9843 0.0, -5.4325 -0.7874 0.0, -5.2638 -0.9843 0.0, 5.2638 -0.9843 0.0, 4.7362 -0.9843 0.0, 5.4325 -0.7874 0.0, 4.5675 -0.7874 0.0
            ]
        }
        coordIndex [
            0,1,2,-1,3,4,5,-1,6,7,8,-1,9,10,11,-1,11,10,12,-1,13,14,15,-1,16,17,18,-1,19,20,21,-1,21,20,22,-1,21,22,23,-1,21,24,19,-1,19,24,25,-1,19,25,26,-1,27,28,29,-1,29,28,30,-1,29,30,8,-1,8,30,31,-1,8,31,6,-1,32,33,34,-1,34,33,35,-1,34,35,5,-1,5,35,36,-1,5,36,3,-1,37,38,39,-1,40,41,42,-1,42,41,43,-1,44,42,25,-1,45,46,47,-1,45,47,48,-1,49,50,51,-1,51,50,52,-1,53,54,55,-1,55,54,51,-1,56,57,58,-1,58,57,59,-1,58,59,60,-1,59,61,62,-1,60,59,63,-1,63,59,62,-1,63,62,64,-1,65,66,67,-1,67,66,68,-1,67,68,69,-1,70,71,72,-1,73,74,75,-1,75,74,76,-1,75,76,77,-1,77,76,68,-1,77,68,78,-1,78,68,66,-1,78,66,73,-1,73,66,72,-1,73,72,74,-1,74,72,71,-1,74,71,79,-1,72,80,70,-1,70,80,81,-1,70,81,82,-1,82,81,83,-1,82,83,79,-1,79,83,84,-1,79,84,74,-1,85,86,87,-1,87,86,88,-1,87,88,89,-1,90,91,92,-1,88,93,89,-1,89,93,81,-1,89,81,94,-1,94,81,80,-1,94,80,85,-1,85,80,92,-1,85,92,86,-1,86,92,91,-1,86,91,95,-1,92,96,90,-1,90,96,97,-1,90,97,98,-1,98,97,99,-1,98,99,95,-1,95,99,100,-1,95,100,86,-1,101,102,103,-1,103,102,97,-1,103,97,104,-1,104,97,96,-1,104,96,105,-1,105,96,16,-1,105,16,106,-1,106,16,101,-1,106,101,103,-1,107,108,109,-1,109,108,110,-1,111,112,113,-1,38,37,32,-1,32,37,113,-1,32,113,33,-1,33,113,112,-1,33,112,114,-1,113,115,111,-1,111,115,116,-1,111,116,117,-1,117,116,118,-1,117,118,114,-1,114,118,119,-1,114,119,33,-1,120,121,122,-1,122,121,123,-1,122,123,124,-1,125,126,127,-1,123,128,124,-1,124,128,116,-1,124,116,129,-1,129,116,115,-1,129,115,120,-1,120,115,127,-1,120,127,121,-1,121,127,126,-1,121,126,130,-1,127,131,125,-1,125,131,132,-1,125,132,133,-1,133,132,134,-1,133,134,130,-1,130,134,135,-1,130,135,121,-1,136,137,138,-1,138,137,139,-1,138,139,140,-1,141,142,143,-1,139,144,140,-1,140,144,132,-1,140,132,145,-1,145,132,131,-1,145,131,136,-1,136,131,143,-1,136,143,137,-1,137,143,142,-1,137,142,146,-1,143,147,141,-1,141,147,148,-1,141,148,149,-1,149,148,150,-1,149,150,146,-1,146,150,151,-1,146,151,137,-1,152,153,154,-1,154,153,155,-1,156,157,158,-1,158,157,154,-1,158,154,159,-1,160,161,0,-1,0,161,158,-1,0,158,1,-1,1,158,159,-1,43,162,163,-1,163,0,43,-1,43,0,2,-1,43,2,42,-1,42,2,28,-1,42,28,25,-1,25,28,27,-1,25,27,26,-1,109,164,165,-1,166,167,164,-1,164,167,168,-1,164,168,169,-1,170,171,23,-1,23,171,172,-1,23,172,21,-1,21,172,173,-1,21,173,46,-1,46,173,174,-1,46,174,166,-1,175,176,177,-1,169,178,164,-1,164,178,179,-1,164,179,165,-1,165,179,180,-1,181,182,183,-1,184,185,23,-1,175,177,186,-1,165,187,109,-1,109,187,188,-1,109,188,189,-1,183,190,181,-1,181,190,191,-1,181,191,192,-1,177,193,194,-1,195,196,181,-1,181,196,197,-1,181,197,182,-1,185,198,23,-1,23,198,199,-1,23,199,170,-1,179,200,180,-1,180,200,201,-1,180,201,202,-1,202,201,203,-1,202,203,204,-1,204,203,205,-1,177,206,207,-1,176,208,177,-1,177,208,209,-1,177,209,193,-1,210,211,212,-1,212,211,177,-1,212,177,213,-1,213,177,194,-1,192,184,181,-1,181,184,23,-1,181,23,6,-1,6,23,22,-1,6,22,7,-1,210,212,203,-1,203,212,214,-1,203,214,205,-1,207,215,177,-1,177,215,216,-1,177,216,186,-1,61,59,217,-1,217,59,218,-1,217,218,65,-1,219,57,220,-1,220,57,221,-1,220,221,222,-1,222,221,218,-1,222,218,223,-1,223,218,59,-1,223,59,219,-1,219,59,57,-1,224,56,225,-1,225,56,226,-1,225,226,227,-1,227,226,221,-1,227,221,228,-1,228,221,57,-1,228,57,224,-1,224,57,56,-1,229,230,231,-1,231,230,232,-1,231,232,233,-1,233,232,226,-1,233,226,234,-1,234,226,56,-1,234,56,229,-1,229,56,230,-1,65,218,66,-1,66,218,221,-1,66,221,72,-1,72,221,226,-1,72,226,80,-1,80,226,232,-1,80,232,92,-1,92,232,235,-1,92,235,96,-1,236,235,237,-1,237,235,232,-1,237,232,238,-1,238,232,230,-1,238,230,239,-1,239,230,240,-1,239,240,236,-1,236,240,235,-1,235,240,241,-1,235,241,242,-1,243,17,244,-1,244,17,16,-1,244,16,245,-1,245,16,96,-1,245,96,9,-1,9,96,235,-1,9,235,10,-1,10,235,242,-1,10,242,246,-1,247,248,58,-1,58,248,55,-1,58,55,56,-1,56,55,51,-1,56,51,230,-1,230,51,52,-1,230,52,240,-1,240,52,249,-1,240,249,241,-1,241,249,250,-1,18,13,16,-1,16,13,15,-1,16,15,101,-1,101,15,251,-1,48,47,252,-1,252,47,249,-1,252,249,253,-1,253,249,52,-1,253,52,254,-1,255,256,257,-1,164,258,257,-1,257,258,259,-1,257,259,255,-1,260,261,15,-1,15,261,262,-1,15,262,263,-1,264,265,266,-1,266,265,267,-1,263,268,15,-1,15,268,269,-1,15,269,270,-1,164,271,258,-1,258,271,266,-1,258,266,272,-1,272,266,267,-1,272,267,273,-1,256,274,257,-1,257,274,275,-1,257,275,276,-1,277,251,110,-1,110,251,15,-1,110,15,109,-1,109,15,270,-1,109,270,272,-1,278,279,273,-1,273,279,280,-1,273,280,272,-1,272,280,281,-1,272,281,109,-1,109,281,282,-1,109,282,164,-1,164,282,283,-1,164,283,271,-1,276,284,257,-1,257,284,285,-1,257,285,286,-1,12,10,14,-1,14,10,257,-1,14,257,15,-1,15,257,286,-1,15,286,260,-1,166,164,46,-1,46,164,257,-1,46,257,47,-1,47,257,10,-1,47,10,249,-1,249,10,246,-1,249,246,250,-1,189,195,109,-1,109,195,181,-1,109,181,107,-1,107,181,287,-1,288,289,31,-1,31,289,290,-1,31,290,6,-1,6,290,291,-1,6,291,292,-1,292,293,6,-1,6,293,294,-1,6,294,181,-1,4,3,295,-1,295,3,287,-1,295,287,296,-1,296,287,181,-1,296,181,39,-1,39,181,294,-1,39,294,37,-1,37,294,293,-1,37,293,288,-1,44,25,297,-1,297,25,24,-1,297,24,298,-1,298,24,21,-1,298,21,299,-1,299,21,46,-1,299,46,300,-1,300,46,45,-1,300,45,301,-1,302,2,303,-1,303,2,304,-1,303,304,305,-1,305,304,30,-1,305,30,306,-1,306,30,28,-1,306,28,302,-1,302,28,2,-1,307,1,308,-1,308,1,309,-1,308,309,310,-1,310,309,304,-1,310,304,311,-1,311,304,2,-1,311,2,307,-1,307,2,1,-1,312,159,313,-1,313,159,314,-1,313,314,315,-1,315,314,309,-1,315,309,316,-1,316,309,1,-1,316,1,312,-1,312,1,159,-1,155,317,154,-1,154,317,318,-1,154,318,159,-1,159,318,319,-1,159,319,314,-1,314,319,320,-1,314,320,321,-1,321,320,322,-1,321,322,318,-1,318,322,323,-1,318,323,319,-1,288,31,37,-1,37,31,30,-1,37,30,113,-1,113,30,304,-1,113,304,115,-1,115,304,309,-1,115,309,127,-1,127,309,314,-1,127,314,131,-1,131,314,321,-1,131,321,143,-1,143,321,324,-1,143,324,147,-1,325,317,326,-1,326,317,324,-1,326,324,327,-1,327,324,321,-1,327,321,328,-1,328,321,318,-1,328,318,325,-1,325,318,317,-1,329,330,331,-1,332,333,334,-1,334,335,332,-1,332,335,336,-1,332,336,337,-1,337,336,338,-1,337,338,339,-1,339,338,340,-1,339,340,333,-1,333,340,341,-1,333,341,334,-1,342,343,344,-1,344,345,342,-1,342,345,341,-1,342,341,346,-1,346,341,340,-1,346,340,347,-1,347,340,348,-1,347,348,343,-1,343,348,349,-1,343,349,344,-1,350,351,352,-1,352,353,350,-1,350,353,349,-1,350,349,354,-1,354,349,348,-1,354,348,355,-1,355,348,356,-1,355,356,351,-1,351,356,357,-1,351,357,352,-1,358,359,360,-1,360,361,358,-1,358,361,357,-1,358,357,362,-1,362,357,356,-1,362,356,363,-1,363,356,364,-1,363,364,359,-1,359,364,365,-1,359,365,360,-1,366,367,368,-1,366,369,370,-1,366,370,371,-1,371,370,364,-1,371,364,372,-1,372,364,356,-1,372,356,367,-1,367,356,373,-1,367,373,368,-1,366,368,369,-1,369,368,374,-1,369,374,375,-1,376,377,378,-1,376,379,373,-1,376,373,380,-1,380,373,356,-1,380,356,381,-1,381,356,348,-1,381,348,377,-1,377,348,382,-1,377,382,378,-1,376,378,379,-1,379,378,383,-1,379,383,384,-1,385,386,387,-1,385,388,382,-1,385,382,389,-1,389,382,348,-1,389,348,390,-1,390,348,340,-1,390,340,386,-1,386,340,391,-1,386,391,387,-1,385,387,388,-1,388,387,392,-1,388,392,393,-1,394,395,396,-1,394,397,391,-1,394,391,398,-1,398,391,340,-1,398,340,399,-1,399,340,338,-1,399,338,395,-1,395,338,400,-1,395,400,396,-1,394,396,397,-1,397,396,401,-1,397,401,402,-1,403,404,405,-1,403,406,400,-1,403,400,407,-1,407,400,338,-1,407,338,408,-1,408,338,409,-1,408,409,404,-1,404,409,410,-1,404,410,405,-1,403,405,406,-1,406,405,411,-1,406,411,412,-1,413,414,415,-1,413,416,410,-1,413,410,417,-1,417,410,409,-1,417,409,418,-1,418,409,419,-1,418,419,414,-1,414,419,420,-1,414,420,415,-1,413,415,416,-1,416,415,421,-1,416,421,422,-1,423,424,425,-1,425,424,426,-1,426,427,428,-1,429,430,431,-1,432,424,430,-1,430,424,423,-1,430,423,431,-1,433,434,427,-1,427,434,435,-1,427,435,428,-1,433,424,434,-1,434,424,432,-1,434,432,419,-1,419,432,436,-1,419,436,420,-1,420,436,429,-1,420,429,437,-1,429,431,437,-1,437,431,438,-1,437,438,439,-1,426,428,425,-1,425,428,440,-1,425,440,441,-1,442,443,444,-1,442,445,435,-1,442,435,446,-1,446,435,434,-1,446,434,447,-1,447,434,448,-1,447,448,443,-1,443,448,449,-1,443,449,444,-1,442,444,445,-1,445,444,450,-1,445,450,451,-1,452,453,454,-1,452,455,449,-1,452,449,456,-1,456,449,448,-1,456,448,457,-1,457,448,458,-1,457,458,453,-1,453,458,459,-1,453,459,454,-1,452,454,455,-1,455,454,460,-1,455,460,461,-1,462,463,464,-1,464,463,458,-1,458,463,465,-1,458,465,459,-1,459,465,466,-1,459,466,467,-1,468,469,329,-1,329,469,467,-1,329,467,330,-1,330,467,466,-1,330,466,462,-1,462,464,330,-1,330,464,470,-1,330,470,331,-1,471,472,464,-1,464,472,473,-1,464,473,470,-1,474,475,476,-1,476,475,477,-1,476,477,478,-1,478,477,471,-1,478,471,479,-1,479,471,464,-1,479,464,480,-1,480,464,458,-1,480,458,476,-1,476,458,474,-1,481,482,483,-1,483,484,481,-1,481,484,474,-1,481,474,485,-1,485,474,458,-1,485,458,486,-1,486,458,448,-1,486,448,482,-1,482,448,487,-1,482,487,483,-1,488,489,490,-1,490,491,488,-1,488,491,487,-1,488,487,492,-1,492,487,448,-1,492,448,493,-1,493,448,434,-1,493,434,489,-1,489,434,494,-1,489,494,490,-1,495,496,419,-1,497,498,499,-1,499,498,500,-1,496,501,419,-1,419,501,502,-1,419,502,434,-1,434,502,503,-1,434,503,494,-1,494,503,498,-1,494,498,504,-1,504,498,497,-1,500,502,499,-1,499,502,501,-1,499,501,505,-1,505,501,506,-1,505,506,507,-1,507,506,495,-1,507,495,508,-1,508,495,419,-1,509,510,511,-1,511,512,509,-1,509,512,508,-1,509,508,513,-1,513,508,419,-1,513,419,514,-1,514,419,409,-1,514,409,510,-1,510,409,515,-1,510,515,511,-1,516,517,518,-1,518,519,516,-1,516,519,515,-1,516,515,520,-1,520,515,409,-1,520,409,521,-1,521,409,338,-1,521,338,517,-1,517,338,336,-1,517,336,518,-1,522,523,524,-1,524,523,525,-1,526,527,528,-1,528,527,529,-1,530,531,532,-1,532,531,533,-1,534,535,536,-1,536,535,537,-1,538,539,540,-1,540,539,541,-1,542,543,544,-1,544,543,545,-1,546,547,548,-1,548,547,549,-1,550,551,552,-1,552,551,553,-1,554,555,556,-1,556,555,557,-1,412,411,558,-1,558,411,559,-1,422,421,560,-1,560,421,561,-1,393,392,562,-1,562,392,563,-1,564,565,401,-1,401,565,402,-1,451,450,566,-1,566,450,567,-1,461,460,568,-1,568,460,569,-1,439,438,570,-1,570,438,571,-1,572,573,440,-1,440,573,441,-1,574,575,383,-1,383,575,384,-1,524,525,518,-1,518,525,519,-1,528,529,511,-1,511,529,512,-1,532,533,344,-1,344,533,345,-1,335,334,534,-1,534,334,535,-1,540,541,490,-1,490,541,491,-1,544,545,483,-1,483,545,484,-1,548,549,507,-1,507,549,505,-1,504,497,550,-1,550,497,551,-1,353,352,554,-1,554,352,555,-1,558,559,576,-1,576,559,577,-1,560,561,578,-1,578,561,579,-1,562,563,580,-1,580,563,581,-1,582,583,564,-1,564,583,565,-1,566,567,584,-1,584,567,585,-1,568,569,586,-1,586,569,587,-1,570,571,588,-1,588,571,589,-1,590,591,572,-1,572,591,573,-1,592,593,574,-1,574,593,575,-1,41,40,522,-1,522,40,523,-1,298,527,297,-1,297,527,526,-1,297,526,44,-1,298,299,527,-1,527,299,300,-1,527,300,301,-1,161,160,530,-1,530,160,531,-1,536,537,162,-1,162,537,163,-1,54,53,538,-1,538,53,539,-1,248,247,542,-1,542,247,543,-1,254,547,253,-1,253,547,546,-1,253,546,252,-1,252,546,48,-1,552,553,49,-1,49,553,50,-1,556,557,156,-1,156,557,157,-1,576,577,118,-1,118,577,119,-1,579,108,107,-1,107,287,579,-1,579,287,3,-1,579,3,578,-1,578,3,36,-1,578,36,35,-1,580,581,134,-1,134,581,135,-1,128,123,582,-1,582,123,583,-1,584,585,88,-1,88,585,93,-1,586,587,83,-1,83,587,84,-1,588,589,102,-1,102,101,588,-1,588,101,251,-1,588,251,277,-1,100,99,590,-1,590,99,591,-1,144,139,592,-1,592,139,593,-1,594,595,596,-1,596,595,597,-1,598,599,600,-1,600,599,601,-1,602,603,604,-1,604,603,605,-1,601,599,475,-1,475,599,477,-1,375,374,606,-1,606,374,607,-1,370,148,364,-1,364,148,147,-1,155,365,317,-1,317,365,364,-1,317,364,324,-1,324,364,147,-1,596,597,360,-1,360,597,361,-1,67,470,62,-1,62,470,472,-1,605,603,468,-1,468,603,469,-1,606,607,608,-1,608,607,609,-1,599,598,64,-1,62,472,64,-1,64,472,477,-1,64,477,599,-1,600,601,60,-1,60,601,475,-1,60,475,58,-1,58,475,474,-1,469,603,76,-1,76,603,602,-1,469,76,467,-1,467,76,74,-1,467,74,459,-1,604,605,69,-1,69,605,468,-1,69,468,67,-1,67,468,470,-1,60,64,600,-1,600,64,598,-1,153,152,594,-1,594,152,595,-1,608,609,150,-1,150,609,151,-1,69,76,604,-1,604,76,602,-1,
        ]
    }
}
Shape{
    appearance Appearance {
        material  Material {
            diffuseColor 0.7529411764705882 0.7529411764705882 0.7529411764705882
            specularColor 0.3764705882352941 0.3764705882352941 0.3764705882352941
            ambientIntensity 0.7529
            transparency 0.0
            shininess 0.5
        }
    }
    geometry IndexedFaceSet {
        ccw TRUE
        solid FALSE
        coord DEF co Coordinate {
            point [
                -5.126 -0.4724 -1.1811, -5.126 -0.374 -1.0827, -4.874 -0.4724 -1.1811, -4.874 -0.374 -1.0827, -5.126 -0.5276 -1.1811, -4.874 -0.5276 -1.1811, -5.126 -0.626 -1.0827, -4.874 -0.626 -1.0827, -4.874 -0.626 0.1969, -4.874 -0.374 0.1969, -5.126 -0.374 0.1969, -5.126 -0.626 0.1969, -4.874 -0.626 3.2638, -5.126 -0.626 3.2638, -4.874 -0.626 1.0, -5.126 -0.626 1.0, -5.126 -0.5276 3.3622, -4.874 -0.5276 3.3622, -5.126 -0.4724 3.3622, -4.874 -0.4724 3.3622, -5.126 -0.374 3.2638, -4.874 -0.374 3.2638, -5.126 -0.374 1.0, -4.874 -0.374 1.0, -5.126 0.5276 -1.1811, -5.126 0.626 -1.0827, -4.874 0.5276 -1.1811, -4.874 0.626 -1.0827, -5.126 0.4724 -1.1811, -4.874 0.4724 -1.1811, -5.126 0.374 -1.0827, -4.874 0.374 -1.0827, -4.874 0.626 0.1969, -4.874 0.374 0.1969, -5.126 0.626 0.1969, -5.126 0.374 0.1969, -4.874 0.374 3.2638, -5.126 0.374 3.2638, -4.874 0.374 1.0, -5.126 0.374 1.0, -5.126 0.4724 3.3622, -4.874 0.4724 3.3622, -5.126 0.5276 3.3622, -4.874 0.5276 3.3622, -5.126 0.626 3.2638, -4.874 0.626 3.2638, -5.126 0.626 1.0, -4.874 0.626 1.0
            ]
        }
        coordIndex [
            0,1,2,-1,2,1,3,-1,4,0,5,-1,5,0,2,-1,6,4,7,-1,7,4,5,-1,5,2,7,-1,7,2,3,-1,7,3,8,-1,8,3,9,-1,0,4,1,-1,1,4,6,-1,1,6,10,-1,10,6,11,-1,9,3,10,-1,10,3,1,-1,11,6,8,-1,8,6,7,-1,12,13,14,-1,14,13,15,-1,16,13,17,-1,17,13,12,-1,18,16,19,-1,19,16,17,-1,20,18,21,-1,21,18,19,-1,20,21,22,-1,22,21,23,-1,16,18,13,-1,13,18,20,-1,13,20,15,-1,15,20,22,-1,19,17,21,-1,21,17,12,-1,21,12,23,-1,23,12,14,-1,24,25,26,-1,26,25,27,-1,28,24,29,-1,29,24,26,-1,30,28,31,-1,31,28,29,-1,32,33,27,-1,27,33,31,-1,27,31,26,-1,26,31,29,-1,24,28,25,-1,25,28,30,-1,25,30,34,-1,34,30,35,-1,32,27,34,-1,34,27,25,-1,35,30,33,-1,33,30,31,-1,36,37,38,-1,38,37,39,-1,40,37,41,-1,41,37,36,-1,42,40,43,-1,43,40,41,-1,44,42,45,-1,45,42,43,-1,44,45,46,-1,46,45,47,-1,40,42,37,-1,37,42,44,-1,37,44,39,-1,39,44,46,-1,43,41,45,-1,45,41,36,-1,45,36,47,-1,47,36,38,-1,
        ]
    }
}
Shape{
    appearance Appearance {
        material  Material {
            diffuseColor 0.14901960784313725 0.14901960784313725 0.14901960784313725
            specularColor 0.07450980392156863 0.07450980392156863 0.07450980392156863
            ambientIntensity 0.149
            transparency 0.0
            shininess 0.5
        }
    }
    geometry IndexedFaceSet {
        ccw TRUE
        solid FALSE
        coord DEF co Coordinate {
            point [
                4.2638 -0.9843 1.0, 4.2638 -0.9843 0.0, 4.4325 -0.7874 0.1969, 4.4325 -0.7874 0.0, 4.4173 -0.8051 1.0, 4.5 -0.7087 0.1969, 4.5 -0.7087 1.0, 4.5675 -0.7874 0.1969, 4.5675 -0.7874 0.0, 4.7362 -0.9843 0.0, 4.5827 -0.8051 1.0, 4.7362 -0.9843 1.0, 5.2638 -0.9843 1.0, 5.2638 -0.9843 0.0, 5.4325 -0.7874 0.1969, 5.4325 -0.7874 0.0, 5.4173 -0.8051 1.0, 5.5 -0.7087 0.1969, 5.5 -0.7087 1.0, -1.7362 -0.9843 1.0, -1.7362 -0.9843 0.0, -1.5675 -0.7874 0.1969, -1.5675 -0.7874 0.0, -1.5827 -0.8051 1.0, -1.5 -0.7087 0.1969, -1.5 -0.7087 1.0, -1.4325 -0.7874 0.1969, -1.4325 -0.7874 0.0, -1.2638 -0.9843 0.0, -1.4173 -0.8051 1.0, -1.2638 -0.9843 1.0, -0.7362 -0.9843 1.0, -0.7362 -0.9843 0.0, -0.5675 -0.7874 0.1969, -0.5675 -0.7874 0.0, -0.5827 -0.8051 1.0, -0.5 -0.7087 0.1969, -0.5 -0.7087 1.0, -0.4325 -0.7874 0.1969, -0.4325 -0.7874 0.0, -0.2638 -0.9843 0.0, -0.4173 -0.8051 1.0, -0.2638 -0.9843 1.0, -4.4325 -0.7874 0.1969, -4.4325 -0.7874 0.0, -4.2638 -0.9843 0.0, -4.5 -0.7087 1.0, -4.5 -0.7087 0.1969, -4.4173 -0.8051 1.0, -4.2638 -0.9843 1.0, -3.7362 -0.9843 1.0, -3.7362 -0.9843 0.0, -3.5675 -0.7874 0.1969, -3.5675 -0.7874 0.0, -3.5827 -0.8051 1.0, -3.5 -0.7087 0.1969, -3.5 -0.7087 1.0, -3.4325 -0.7874 0.1969, -3.4325 -0.7874 0.0, -3.2638 -0.9843 0.0, -3.4173 -0.8051 1.0, -3.2638 -0.9843 1.0, -2.7362 -0.9843 1.0, -2.7362 -0.9843 0.0, -2.5675 -0.7874 0.1969, -2.5675 -0.7874 0.0, -2.5827 -0.8051 1.0, -2.5 -0.7087 0.1969, -2.5 -0.7087 1.0, -2.4325 -0.7874 0.1969, -2.4325 -0.7874 0.0, -2.2638 -0.9843 0.0, -2.4173 -0.8051 1.0, -2.2638 -0.9843 1.0, 2.2638 -0.9843 1.0, 2.2638 -0.9843 0.0, 2.4325 -0.7874 0.1969, 2.4325 -0.7874 0.0, 2.4173 -0.8051 1.0, 2.5 -0.7087 0.1969, 2.5 -0.7087 1.0, 2.5675 -0.7874 0.1969, 2.5675 -0.7874 0.0, 2.7362 -0.9843 0.0, 2.5827 -0.8051 1.0, 2.7362 -0.9843 1.0, 3.2638 -0.9843 1.0, 3.2638 -0.9843 0.0, 3.4325 -0.7874 0.1969, 3.4325 -0.7874 0.0, 3.4173 -0.8051 1.0, 3.5 -0.7087 0.1969, 3.5 -0.7087 1.0, 3.5675 -0.7874 0.1969, 3.5675 -0.7874 0.0, 3.7362 -0.9843 0.0, 3.5827 -0.8051 1.0, 3.7362 -0.9843 1.0, 0.2638 -0.9843 1.0, 0.2638 -0.9843 0.0, 0.4325 -0.7874 0.1969, 0.4325 -0.7874 0.0, 0.4173 -0.8051 1.0, 0.5 -0.7087 0.1969, 0.5 -0.7087 1.0, 0.5675 -0.7874 0.1969, 0.5675 -0.7874 0.0, 0.7362 -0.9843 0.0, 0.5827 -0.8051 1.0, 0.7362 -0.9843 1.0, 1.2638 -0.9843 1.0, 1.2638 -0.9843 0.0, 1.4325 -0.7874 0.1969, 1.4325 -0.7874 0.0, 1.4173 -0.8051 1.0, 1.5 -0.7087 0.1969, 1.5 -0.7087 1.0, 1.5675 -0.7874 0.1969, 1.5675 -0.7874 0.0, 1.7362 -0.9843 0.0, 1.5827 -0.8051 1.0, 1.7362 -0.9843 1.0, -4.2638 0.9843 0.0, -4.4325 0.7874 0.0, -4.4325 0.7874 0.1969, -4.5 0.7087 0.1969, -4.5 0.7087 1.0, -4.2638 0.9843 1.0, 4.4325 0.7874 0.0, 4.2638 0.9843 0.0, 4.4325 0.7874 0.1969, 4.2638 0.9843 1.0, 4.5 0.7087 0.1969, 4.5 0.7087 1.0, 4.7362 0.9843 0.0, 4.5675 0.7874 0.0, 4.5675 0.7874 0.1969, 4.7362 0.9843 1.0, 5.4325 0.7874 0.0, 5.2638 0.9843 0.0, 5.4325 0.7874 0.1969, 5.2638 0.9843 1.0, 5.5 0.7087 0.1969, 5.5 0.7087 1.0, -1.5675 0.7874 0.0, -1.7362 0.9843 0.0, -1.5675 0.7874 0.1969, -1.7362 0.9843 1.0, -1.5 0.7087 0.1969, -1.5 0.7087 1.0, -1.2638 0.9843 0.0, -1.4325 0.7874 0.0, -1.4325 0.7874 0.1969, -1.2638 0.9843 1.0, -0.5675 0.7874 0.0, -0.7362 0.9843 0.0, -0.5675 0.7874 0.1969, -0.7362 0.9843 1.0, -0.5 0.7087 0.1969, -0.5 0.7087 1.0, -0.2638 0.9843 0.0, -0.4325 0.7874 0.0, -0.4325 0.7874 0.1969, -0.2638 0.9843 1.0, -3.5675 0.7874 0.0, -3.7362 0.9843 0.0, -3.5675 0.7874 0.1969, -3.7362 0.9843 1.0, -3.5 0.7087 0.1969, -3.5 0.7087 1.0, -3.2638 0.9843 0.0, -3.4325 0.7874 0.0, -3.4325 0.7874 0.1969, -3.2638 0.9843 1.0, -2.5675 0.7874 0.0, -2.7362 0.9843 0.0, -2.5675 0.7874 0.1969, -2.7362 0.9843 1.0, -2.5 0.7087 0.1969, -2.5 0.7087 1.0, -2.2638 0.9843 0.0, -2.4325 0.7874 0.0, -2.4325 0.7874 0.1969, -2.2638 0.9843 1.0, 2.4325 0.7874 0.0, 2.2638 0.9843 0.0, 2.4325 0.7874 0.1969, 2.2638 0.9843 1.0, 2.5 0.7087 0.1969, 2.5 0.7087 1.0, 2.7362 0.9843 0.0, 2.5675 0.7874 0.0, 2.5675 0.7874 0.1969, 2.7362 0.9843 1.0, 3.4325 0.7874 0.0, 3.2638 0.9843 0.0, 3.4325 0.7874 0.1969, 3.2638 0.9843 1.0, 3.5 0.7087 0.1969, 3.5 0.7087 1.0, 3.7362 0.9843 0.0, 3.5675 0.7874 0.0, 3.5675 0.7874 0.1969, 3.7362 0.9843 1.0, 0.4325 0.7874 0.0, 0.2638 0.9843 0.0, 0.4325 0.7874 0.1969, 0.2638 0.9843 1.0, 0.5 0.7087 0.1969, 0.5 0.7087 1.0, 0.7362 0.9843 0.0, 0.5675 0.7874 0.0, 0.5675 0.7874 0.1969, 0.7362 0.9843 1.0, 1.4325 0.7874 0.0, 1.2638 0.9843 0.0, 1.4325 0.7874 0.1969, 1.2638 0.9843 1.0, 1.5 0.7087 0.1969, 1.5 0.7087 1.0, 1.7362 0.9843 0.0, 1.5675 0.7874 0.0, 1.5675 0.7874 0.1969, 1.7362 0.9843 1.0
            ]
        }
        coordIndex [
            0,1,2,-1,2,1,3,-1,0,2,4,-1,4,2,5,-1,4,5,6,-1,7,8,9,-1,6,5,10,-1,10,5,7,-1,10,7,11,-1,11,7,9,-1,12,13,14,-1,14,13,15,-1,12,14,16,-1,16,14,17,-1,16,17,18,-1,19,20,21,-1,21,20,22,-1,19,21,23,-1,23,21,24,-1,23,24,25,-1,26,27,28,-1,25,24,29,-1,29,24,26,-1,29,26,30,-1,30,26,28,-1,31,32,33,-1,33,32,34,-1,31,33,35,-1,35,33,36,-1,35,36,37,-1,38,39,40,-1,37,36,41,-1,41,36,38,-1,41,38,42,-1,42,38,40,-1,43,44,45,-1,46,47,48,-1,48,47,43,-1,48,43,49,-1,49,43,45,-1,50,51,52,-1,52,51,53,-1,50,52,54,-1,54,52,55,-1,54,55,56,-1,57,58,59,-1,56,55,60,-1,60,55,57,-1,60,57,61,-1,61,57,59,-1,62,63,64,-1,64,63,65,-1,62,64,66,-1,66,64,67,-1,66,67,68,-1,69,70,71,-1,68,67,72,-1,72,67,69,-1,72,69,73,-1,73,69,71,-1,74,75,76,-1,76,75,77,-1,74,76,78,-1,78,76,79,-1,78,79,80,-1,81,82,83,-1,80,79,84,-1,84,79,81,-1,84,81,85,-1,85,81,83,-1,86,87,88,-1,88,87,89,-1,86,88,90,-1,90,88,91,-1,90,91,92,-1,93,94,95,-1,92,91,96,-1,96,91,93,-1,96,93,97,-1,97,93,95,-1,98,99,100,-1,100,99,101,-1,98,100,102,-1,102,100,103,-1,102,103,104,-1,105,106,107,-1,104,103,108,-1,108,103,105,-1,108,105,109,-1,109,105,107,-1,110,111,112,-1,112,111,113,-1,110,112,114,-1,114,112,115,-1,114,115,116,-1,117,118,119,-1,116,115,120,-1,120,115,117,-1,120,117,121,-1,121,117,119,-1,122,123,124,-1,125,126,124,-1,124,126,127,-1,124,127,122,-1,128,129,130,-1,130,129,131,-1,130,131,132,-1,132,131,133,-1,134,135,136,-1,132,133,136,-1,136,133,137,-1,136,137,134,-1,138,139,140,-1,140,139,141,-1,140,141,142,-1,142,141,143,-1,144,145,146,-1,146,145,147,-1,146,147,148,-1,148,147,149,-1,150,151,152,-1,148,149,152,-1,152,149,153,-1,152,153,150,-1,154,155,156,-1,156,155,157,-1,156,157,158,-1,158,157,159,-1,160,161,162,-1,158,159,162,-1,162,159,163,-1,162,163,160,-1,164,165,166,-1,166,165,167,-1,166,167,168,-1,168,167,169,-1,170,171,172,-1,168,169,172,-1,172,169,173,-1,172,173,170,-1,174,175,176,-1,176,175,177,-1,176,177,178,-1,178,177,179,-1,180,181,182,-1,178,179,182,-1,182,179,183,-1,182,183,180,-1,184,185,186,-1,186,185,187,-1,186,187,188,-1,188,187,189,-1,190,191,192,-1,188,189,192,-1,192,189,193,-1,192,193,190,-1,194,195,196,-1,196,195,197,-1,196,197,198,-1,198,197,199,-1,200,201,202,-1,198,199,202,-1,202,199,203,-1,202,203,200,-1,204,205,206,-1,206,205,207,-1,206,207,208,-1,208,207,209,-1,210,211,212,-1,208,209,212,-1,212,209,213,-1,212,213,210,-1,214,215,216,-1,216,215,217,-1,216,217,218,-1,218,217,219,-1,220,221,222,-1,218,219,222,-1,222,219,223,-1,222,223,220,-1,
        ]
    }
}
Shape{
    appearance Appearance {
        material  Material {
            diffuseColor 0.7529411764705882 0.7529411764705882 0.7529411764705882
            specularColor 0.3764705882352941 0.3764705882352941 0.3764705882352941
            ambientIntensity 0.7529
            transparency 0.0
            shininess 0.5
        }
    }
    geometry IndexedFaceSet {
        ccw TRUE
        solid FALSE
        coord DEF co Coordinate {
            point [
                -4.126 -0.4724 -1.1811, -4.126 -0.374 -1.0827, -3.874 -0.4724 -1.1811, -3.874 -0.374 -1.0827, -4.126 -0.5276 -1.1811, -3.874 -0.5276 -1.1811, -4.126 -0.626 -1.0827, -3.874 -0.626 -1.0827, -3.874 -0.626 0.1969, -3.874 -0.374 0.1969, -4.126 -0.374 0.1969, -4.126 -0.626 0.1969, -3.874 -0.626 3.2638, -4.126 -0.626 3.2638, -3.874 -0.626 1.0, -4.126 -0.626 1.0, -4.126 -0.5276 3.3622, -3.874 -0.5276 3.3622, -4.126 -0.4724 3.3622, -3.874 -0.4724 3.3622, -4.126 -0.374 3.2638, -3.874 -0.374 3.2638, -4.126 -0.374 1.0, -3.874 -0.374 1.0, -4.126 0.5276 -1.1811, -4.126 0.626 -1.0827, -3.874 0.5276 -1.1811, -3.874 0.626 -1.0827, -4.126 0.4724 -1.1811, -3.874 0.4724 -1.1811, -4.126 0.374 -1.0827, -3.874 0.374 -1.0827, -3.874 0.626 0.1969, -3.874 0.374 0.1969, -4.126 0.626 0.1969, -4.126 0.374 0.1969, -3.874 0.374 3.2638, -4.126 0.374 3.2638, -3.874 0.374 1.0, -4.126 0.374 1.0, -4.126 0.4724 3.3622, -3.874 0.4724 3.3622, -4.126 0.5276 3.3622, -3.874 0.5276 3.3622, -4.126 0.626 3.2638, -3.874 0.626 3.2638, -4.126 0.626 1.0, -3.874 0.626 1.0, -3.126 -0.4724 -1.1811, -3.126 -0.374 -1.0827, -2.874 -0.4724 -1.1811, -2.874 -0.374 -1.0827, -3.126 -0.5276 -1.1811, -2.874 -0.5276 -1.1811, -3.126 -0.626 -1.0827, -2.874 -0.626 -1.0827, -2.874 -0.374 0.1969, -2.874 -0.626 0.1969, -3.126 -0.374 0.1969, -3.126 -0.626 0.1969, -2.874 -0.626 3.2638, -3.126 -0.626 3.2638, -2.874 -0.626 1.0, -3.126 -0.626 1.0, -3.126 -0.5276 3.3622, -2.874 -0.5276 3.3622, -3.126 -0.4724 3.3622, -2.874 -0.4724 3.3622, -3.126 -0.374 3.2638, -2.874 -0.374 3.2638, -3.126 -0.374 1.0, -2.874 -0.374 1.0, -3.126 0.5276 -1.1811, -3.126 0.626 -1.0827, -2.874 0.5276 -1.1811, -2.874 0.626 -1.0827, -3.126 0.4724 -1.1811, -2.874 0.4724 -1.1811, -3.126 0.374 -1.0827, -2.874 0.374 -1.0827, -2.874 0.626 0.1969, -2.874 0.374 0.1969, -3.126 0.626 0.1969, -3.126 0.374 0.1969, -2.874 0.374 3.2638, -3.126 0.374 3.2638, -2.874 0.374 1.0, -3.126 0.374 1.0, -3.126 0.4724 3.3622, -2.874 0.4724 3.3622, -3.126 0.5276 3.3622, -2.874 0.5276 3.3622, -3.126 0.626 3.2638, -2.874 0.626 3.2638, -3.126 0.626 1.0, -2.874 0.626 1.0, -2.126 -0.4724 -1.1811, -2.126 -0.374 -1.0827, -1.874 -0.4724 -1.1811, -1.874 -0.374 -1.0827, -2.126 -0.5276 -1.1811, -1.874 -0.5276 -1.1811, -2.126 -0.626 -1.0827, -1.874 -0.626 -1.0827, -1.874 -0.626 0.1969, -1.874 -0.374 0.1969, -2.126 -0.626 0.1969, -2.126 -0.374 0.1969, -1.874 -0.626 3.2638, -2.126 -0.626 3.2638, -1.874 -0.626 1.0, -2.126 -0.626 1.0, -2.126 -0.5276 3.3622, -1.874 -0.5276 3.3622, -2.126 -0.4724 3.3622, -1.874 -0.4724 3.3622, -2.126 -0.374 3.2638, -1.874 -0.374 3.2638, -2.126 -0.374 1.0, -1.874 -0.374 1.0, -2.126 0.5276 -1.1811, -2.126 0.626 -1.0827, -1.874 0.5276 -1.1811, -1.874 0.626 -1.0827, -2.126 0.4724 -1.1811, -1.874 0.4724 -1.1811, -2.126 0.374 -1.0827, -1.874 0.374 -1.0827, -1.874 0.374 0.1969, -1.874 0.626 0.1969, -2.126 0.374 0.1969, -2.126 0.626 0.1969, -1.874 0.374 3.2638, -2.126 0.374 3.2638, -1.874 0.374 1.0, -2.126 0.374 1.0, -2.126 0.4724 3.3622, -1.874 0.4724 3.3622, -2.126 0.5276 3.3622, -1.874 0.5276 3.3622, -2.126 0.626 3.2638, -1.874 0.626 3.2638, -2.126 0.626 1.0, -1.874 0.626 1.0, -1.126 -0.4724 -1.1811, -1.126 -0.374 -1.0827, -0.874 -0.4724 -1.1811, -0.874 -0.374 -1.0827, -1.126 -0.5276 -1.1811, -0.874 -0.5276 -1.1811, -1.126 -0.626 -1.0827, -0.874 -0.626 -1.0827, -0.874 -0.626 0.1969, -0.874 -0.374 0.1969, -1.126 -0.626 0.1969, -1.126 -0.374 0.1969, -0.874 -0.626 3.2638, -1.126 -0.626 3.2638, -0.874 -0.626 1.0, -1.126 -0.626 1.0, -1.126 -0.5276 3.3622, -0.874 -0.5276 3.3622, -1.126 -0.4724 3.3622, -0.874 -0.4724 3.3622, -1.126 -0.374 3.2638, -0.874 -0.374 3.2638, -1.126 -0.374 1.0, -0.874 -0.374 1.0, -1.126 0.5276 -1.1811, -1.126 0.626 -1.0827, -0.874 0.5276 -1.1811, -0.874 0.626 -1.0827, -1.126 0.4724 -1.1811, -0.874 0.4724 -1.1811, -1.126 0.374 -1.0827, -0.874 0.374 -1.0827, -0.874 0.626 0.1969, -0.874 0.374 0.1969, -1.126 0.626 0.1969, -1.126 0.374 0.1969, -0.874 0.374 3.2638, -1.126 0.374 3.2638, -0.874 0.374 1.0, -1.126 0.374 1.0, -1.126 0.4724 3.3622, -0.874 0.4724 3.3622, -1.126 0.5276 3.3622, -0.874 0.5276 3.3622, -1.126 0.626 3.2638, -0.874 0.626 3.2638, -1.126 0.626 1.0, -0.874 0.626 1.0, -0.126 -0.4724 -1.1811, -0.126 -0.374 -1.0827, 0.126 -0.4724 -1.1811, 0.126 -0.374 -1.0827, -0.126 -0.5276 -1.1811, 0.126 -0.5276 -1.1811, -0.126 -0.626 -1.0827, 0.126 -0.626 -1.0827, 0.126 -0.626 0.1969, 0.126 -0.374 0.1969, -0.126 -0.626 0.1969, -0.126 -0.374 0.1969, -0.1223 -0.374 0.1969, 0.0504 -0.374 0.1969, -0.1223 -0.626 0.1969, 0.0504 -0.626 0.1969, 0.126 -0.626 3.2638, -0.126 -0.626 3.2638, 0.126 -0.626 1.0, -0.126 -0.626 1.0, -0.126 -0.5276 3.3622, 0.126 -0.5276 3.3622, -0.126 -0.4724 3.3622, 0.126 -0.4724 3.3622, -0.126 -0.374 3.2638, 0.126 -0.374 3.2638, -0.126 -0.374 1.0, 0.126 -0.374 1.0, -0.126 0.5276 -1.1811, -0.126 0.626 -1.0827, 0.126 0.5276 -1.1811, 0.126 0.626 -1.0827, -0.126 0.4724 -1.1811, 0.126 0.4724 -1.1811, -0.126 0.374 -1.0827, 0.126 0.374 -1.0827, 0.126 0.626 0.1969, 0.126 0.374 0.1969, -0.126 0.626 0.1969, -0.126 0.374 0.1969, -0.1223 0.626 0.1969, 0.0504 0.626 0.1969, -0.1223 0.374 0.1969, 0.0504 0.374 0.1969, 0.126 0.374 3.2638, -0.126 0.374 3.2638, 0.126 0.374 1.0, -0.126 0.374 1.0, -0.126 0.4724 3.3622, 0.126 0.4724 3.3622, -0.126 0.5276 3.3622, 0.126 0.5276 3.3622, -0.126 0.626 3.2638, 0.126 0.626 3.2638, -0.126 0.626 1.0, 0.126 0.626 1.0, 0.874 -0.4724 -1.1811, 0.874 -0.374 -1.0827, 1.126 -0.4724 -1.1811, 1.126 -0.374 -1.0827, 0.874 -0.5276 -1.1811, 1.126 -0.5276 -1.1811, 0.874 -0.626 -1.0827, 1.126 -0.626 -1.0827, 1.126 -0.626 0.1969, 1.126 -0.374 0.1969, 0.874 -0.626 0.1969, 0.874 -0.374 0.1969, 1.126 -0.626 3.2638, 0.874 -0.626 3.2638, 1.126 -0.626 1.0, 0.874 -0.626 1.0, 0.874 -0.5276 3.3622, 1.126 -0.5276 3.3622, 0.874 -0.4724 3.3622, 1.126 -0.4724 3.3622, 0.874 -0.374 3.2638, 1.126 -0.374 3.2638, 0.874 -0.374 1.0, 1.126 -0.374 1.0, 0.874 0.5276 -1.1811, 0.874 0.626 -1.0827, 1.126 0.5276 -1.1811, 1.126 0.626 -1.0827, 0.874 0.4724 -1.1811, 1.126 0.4724 -1.1811, 0.874 0.374 -1.0827, 1.126 0.374 -1.0827, 1.126 0.626 0.1969, 1.126 0.374 0.1969, 0.874 0.626 0.1969, 0.874 0.374 0.1969, 1.126 0.374 3.2638, 0.874 0.374 3.2638, 1.126 0.374 1.0, 0.874 0.374 1.0, 0.874 0.4724 3.3622, 1.126 0.4724 3.3622, 0.874 0.5276 3.3622, 1.126 0.5276 3.3622, 0.874 0.626 3.2638, 1.126 0.626 3.2638, 0.874 0.626 1.0, 1.126 0.626 1.0, 1.874 -0.4724 -1.1811, 1.874 -0.374 -1.0827, 2.126 -0.4724 -1.1811, 2.126 -0.374 -1.0827, 1.874 -0.5276 -1.1811, 2.126 -0.5276 -1.1811, 1.874 -0.626 -1.0827, 2.126 -0.626 -1.0827, 2.126 -0.374 0.1969, 2.126 -0.626 0.1969, 1.874 -0.374 0.1969, 1.874 -0.626 0.1969, 2.126 -0.626 3.2638, 1.874 -0.626 3.2638, 2.126 -0.626 1.0, 1.874 -0.626 1.0, 1.874 -0.5276 3.3622, 2.126 -0.5276 3.3622, 1.874 -0.4724 3.3622, 2.126 -0.4724 3.3622, 1.874 -0.374 3.2638, 2.126 -0.374 3.2638, 1.874 -0.374 1.0, 2.126 -0.374 1.0, 1.874 0.5276 -1.1811, 1.874 0.626 -1.0827, 2.126 0.5276 -1.1811, 2.126 0.626 -1.0827, 1.874 0.4724 -1.1811, 2.126 0.4724 -1.1811, 1.874 0.374 -1.0827, 2.126 0.374 -1.0827, 2.126 0.626 0.1969, 2.126 0.374 0.1969, 1.874 0.626 0.1969, 1.874 0.374 0.1969, 2.126 0.374 3.2638, 1.874 0.374 3.2638, 2.126 0.374 1.0, 1.874 0.374 1.0, 1.874 0.4724 3.3622, 2.126 0.4724 3.3622, 1.874 0.5276 3.3622, 2.126 0.5276 3.3622, 1.874 0.626 3.2638, 2.126 0.626 3.2638, 1.874 0.626 1.0, 2.126 0.626 1.0, 2.874 -0.4724 -1.1811, 2.874 -0.374 -1.0827, 3.126 -0.4724 -1.1811, 3.126 -0.374 -1.0827, 2.874 -0.5276 -1.1811, 3.126 -0.5276 -1.1811, 2.874 -0.626 -1.0827, 3.126 -0.626 -1.0827, 3.126 -0.626 0.1969, 3.126 -0.374 0.1969, 2.874 -0.374 0.1969, 2.874 -0.626 0.1969, 3.126 -0.626 3.2638, 2.874 -0.626 3.2638, 3.126 -0.626 1.0, 2.874 -0.626 1.0, 2.874 -0.5276 3.3622, 3.126 -0.5276 3.3622, 2.874 -0.4724 3.3622, 3.126 -0.4724 3.3622, 2.874 -0.374 3.2638, 3.126 -0.374 3.2638, 2.874 -0.374 1.0, 3.126 -0.374 1.0, 2.874 0.5276 -1.1811, 2.874 0.626 -1.0827, 3.126 0.5276 -1.1811, 3.126 0.626 -1.0827, 2.874 0.4724 -1.1811, 3.126 0.4724 -1.1811, 2.874 0.374 -1.0827, 3.126 0.374 -1.0827, 3.126 0.374 0.1969, 3.126 0.626 0.1969, 2.874 0.374 0.1969, 2.874 0.626 0.1969, 3.126 0.374 3.2638, 2.874 0.374 3.2638, 3.126 0.374 1.0, 2.874 0.374 1.0, 2.874 0.4724 3.3622, 3.126 0.4724 3.3622, 2.874 0.5276 3.3622, 3.126 0.5276 3.3622, 2.874 0.626 3.2638, 3.126 0.626 3.2638, 2.874 0.626 1.0, 3.126 0.626 1.0, 3.874 -0.4724 -1.1811, 3.874 -0.374 -1.0827, 4.126 -0.4724 -1.1811, 4.126 -0.374 -1.0827, 3.874 -0.5276 -1.1811, 4.126 -0.5276 -1.1811, 3.874 -0.626 -1.0827, 4.126 -0.626 -1.0827, 4.126 -0.626 0.1969, 4.126 -0.374 0.1969, 3.874 -0.374 0.1969, 3.874 -0.626 0.1969, 4.126 -0.626 3.2638, 3.874 -0.626 3.2638, 4.126 -0.626 1.0, 3.874 -0.626 1.0, 3.874 -0.5276 3.3622, 4.126 -0.5276 3.3622, 3.874 -0.4724 3.3622, 4.126 -0.4724 3.3622, 3.874 -0.374 3.2638, 4.126 -0.374 3.2638, 3.874 -0.374 1.0, 4.126 -0.374 1.0, 3.874 0.5276 -1.1811, 3.874 0.626 -1.0827, 4.126 0.5276 -1.1811, 4.126 0.626 -1.0827, 3.874 0.4724 -1.1811, 4.126 0.4724 -1.1811, 3.874 0.374 -1.0827, 4.126 0.374 -1.0827, 4.126 0.626 0.1969, 4.126 0.374 0.1969, 3.874 0.626 0.1969, 3.874 0.374 0.1969, 4.126 0.374 3.2638, 3.874 0.374 3.2638, 4.126 0.374 1.0, 3.874 0.374 1.0, 3.874 0.4724 3.3622, 4.126 0.4724 3.3622, 3.874 0.5276 3.3622, 4.126 0.5276 3.3622, 3.874 0.626 3.2638, 4.126 0.626 3.2638, 3.874 0.626 1.0, 4.126 0.626 1.0, 4.874 -0.4724 -1.1811, 4.874 -0.374 -1.0827, 5.126 -0.4724 -1.1811, 5.126 -0.374 -1.0827, 4.874 -0.5276 -1.1811, 5.126 -0.5276 -1.1811, 4.874 -0.626 -1.0827, 5.126 -0.626 -1.0827, 5.126 -0.626 0.1969, 5.126 -0.374 0.1969, 4.874 -0.374 0.1969, 4.874 -0.626 0.1969, 5.126 -0.626 3.2638, 4.874 -0.626 3.2638, 5.126 -0.626 1.0, 4.874 -0.626 1.0, 4.874 -0.5276 3.3622, 5.126 -0.5276 3.3622, 4.874 -0.4724 3.3622, 5.126 -0.4724 3.3622, 4.874 -0.374 3.2638, 5.126 -0.374 3.2638, 4.874 -0.374 1.0, 5.126 -0.374 1.0, 4.874 0.5276 -1.1811, 4.874 0.626 -1.0827, 5.126 0.5276 -1.1811, 5.126 0.626 -1.0827, 4.874 0.4724 -1.1811, 5.126 0.4724 -1.1811, 4.874 0.374 -1.0827, 5.126 0.374 -1.0827, 5.126 0.626 0.1969, 5.126 0.374 0.1969, 4.874 0.626 0.1969, 4.874 0.374 0.1969, 5.126 0.374 3.2638, 4.874 0.374 3.2638, 5.126 0.374 1.0, 4.874 0.374 1.0, 4.874 0.4724 3.3622, 5.126 0.4724 3.3622, 4.874 0.5276 3.3622, 5.126 0.5276 3.3622, 4.874 0.626 3.2638, 5.126 0.626 3.2638, 4.874 0.626 1.0, 5.126 0.626 1.0, -0.8 0.1969 0.2362, -0.8025 0.1969 0.2362, -0.8 0.1969 0.1969, -0.8025 0.1969 0.1969, -0.8934 0.0 0.2362, -0.8934 0.0 0.1969, -0.8742 0.0 0.2362, -0.8742 0.0 0.1969, -0.8451 0.0631 0.2362, -0.8451 0.0631 0.1969, -0.7903 0.0631 0.1969, -0.7559 0.0631 0.2362, -0.7559 0.0631 0.1969, -0.7259 0.0 0.2362, -0.7259 0.0 0.1969, -0.7066 0.0 0.2362, -0.7066 0.0 0.1969, -0.7903 0.1764 0.1969, -0.8358 0.0833 0.2362, -0.7654 0.0833 0.2362, -0.8011 0.1585 0.2362, -0.8358 0.0833 0.1969, -0.8011 0.1585 0.1969, -0.7654 0.0833 0.1969, -0.5809 0.0 0.2362, -0.5199 0.0 0.2362, -0.5809 0.0 0.1969, -0.5199 0.0 0.1969, -0.5199 0.1969 0.2362, -0.5199 0.1969 0.1969, -0.5596 0.1969 0.2362, -0.5596 0.1969 0.1969, -0.6221 0.1898 0.2362, -0.6221 0.1898 0.1969, -0.5912 0.1956 0.1969, -0.5912 0.1956 0.2362, -0.6814 0.0959 0.2362, -0.6814 0.0959 0.1969, -0.6811 0.1051 0.1969, -0.6811 0.1051 0.2362, -0.6772 0.1289 0.1969, -0.6772 0.1289 0.2362, -0.6689 0.1494 0.1969, -0.6689 0.1494 0.2362, -0.6564 0.1672 0.1969, -0.6564 0.1672 0.2362, -0.642 0.1797 0.1969, -0.642 0.1797 0.2362, -0.604 0.0013 0.1969, -0.604 0.0013 0.2362, -0.628 0.0068 0.1969, -0.628 0.0068 0.2362, -0.6428 0.0144 0.1969, -0.6428 0.0144 0.2362, -0.6575 0.0274 0.1969, -0.6575 0.0274 0.2362, -0.6709 0.0477 0.1969, -0.6709 0.0477 0.2362, -0.6786 0.0696 0.1969, -0.6786 0.0696 0.2362, -0.5818 0.1757 0.2362, -0.6119 0.1711 0.2362, -0.6207 0.1679 0.2362, -0.6354 0.1593 0.2362, -0.6468 0.1482 0.2362, -0.6558 0.1338 0.2362, -0.6616 0.1169 0.2362, -0.6637 0.096 0.2362, -0.6636 0.0905 0.2362, -0.6601 0.0697 0.2362, -0.6536 0.0548 0.2362, -0.6438 0.0419 0.2362, -0.6321 0.0324 0.2362, -0.6164 0.0252 0.2362, -0.5885 0.021 0.2362, -0.5601 0.0202 0.2362, -0.5376 0.0202 0.2362, -0.5376 0.1767 0.2362, -0.5514 0.1767 0.2362, -0.5376 0.1767 0.1969, -0.5376 0.0202 0.1969, -0.5514 0.1767 0.1969, -0.5818 0.1757 0.1969, -0.6119 0.1711 0.1969, -0.6207 0.1679 0.1969, -0.6354 0.1593 0.1969, -0.6468 0.1482 0.1969, -0.6558 0.1338 0.1969, -0.6616 0.1169 0.1969, -0.6637 0.096 0.1969, -0.6636 0.0905 0.1969, -0.6601 0.0697 0.1969, -0.6536 0.0548 0.1969, -0.6438 0.0419 0.1969, -0.6321 0.0324 0.1969, -0.6164 0.0252 0.1969, -0.5885 0.021 0.1969, -0.5601 0.0202 0.1969, -0.3735 0.0 0.2362, -0.3735 0.1969 0.2362, -0.3735 0.0 0.1969, -0.3735 0.1969 0.1969, -0.4846 0.1969 0.2362, -0.4846 0.1969 0.1969, -0.4846 0.1767 0.2362, -0.4846 0.1767 0.1969, -0.3912 0.1767 0.2362, -0.3912 0.1767 0.1969, -0.3912 0.1161 0.2362, -0.3912 0.1161 0.1969, -0.4846 0.1161 0.2362, -0.4846 0.1161 0.1969, -0.4846 0.0959 0.2362, -0.4846 0.0959 0.1969, -0.3912 0.0959 0.2362, -0.3912 0.0959 0.1969, -0.3912 0.0202 0.2362, -0.3912 0.0202 0.1969, -0.4846 0.0202 0.2362, -0.4846 0.0202 0.1969, -0.4846 0.0 0.2362, -0.4846 0.0 0.1969, -0.2472 0.2019 0.1969, -0.2472 0.2019 0.2362, -0.2692 0.1994 0.1969, -0.2759 0.1986 0.2362, -0.2759 0.1986 0.1969, -0.2938 0.1924 0.2362, -0.2938 0.1924 0.1969, -0.3153 0.1794 0.2362, -0.3153 0.1794 0.1969, -0.3273 0.168 0.2362, -0.3273 0.168 0.1969, -0.3331 0.1607 0.2362, -0.3331 0.1607 0.1969, -0.3177 0.1489 0.2362, -0.3177 0.1489 0.1969, -0.2461 0.1817 0.2362, -0.2461 0.1817 0.1969, -0.253 0.1815 0.1969, -0.253 0.1815 0.2362, -0.2747 0.1777 0.1969, -0.2747 0.1777 0.2362, -0.2834 0.1746 0.1969, -0.2834 0.1746 0.2362, -0.3019 0.1642 0.1969, -0.3019 0.1642 0.2362, -0.159 0.0982 0.2362, -0.159 0.0982 0.1969, -0.1594 0.1075 0.1969, -0.1594 0.1075 0.2362, -0.1637 0.1266 0.1969, -0.1637 0.1266 0.2362, -0.1724 0.1441 0.1969, -0.1724 0.1441 0.2362, -0.1847 0.1583 0.1969, -0.1847 0.1583 0.2362, -0.2028 0.1711 0.1969, -0.2028 0.1711 0.2362, -0.2229 0.1788 0.1969, -0.2229 0.1788 0.2362, -0.2474 0.0151 0.2362, -0.2474 0.0151 0.1969, -0.2317 0.0162 0.1969, -0.2317 0.0162 0.2362, -0.2117 0.0214 0.1969, -0.2117 0.0214 0.2362, -0.1926 0.0318 0.1969, -0.1926 0.0318 0.2362, -0.1784 0.0448 0.1969, -0.1784 0.0448 0.2362, -0.1678 0.0602 0.1969, -0.1678 0.0602 0.2362, -0.1616 0.0765 0.1969, -0.1616 0.0765 0.2362, -0.3177 0.048 0.2362, -0.3177 0.048 0.1969, -0.3068 0.037 0.1969, -0.3068 0.037 0.2362, -0.2894 0.025 0.1969, -0.2894 0.025 0.2362, -0.2704 0.0179 0.1969, -0.2704 0.0179 0.2362, -0.3331 0.0362 0.2362, -0.3331 0.0362 0.1969, -0.2475 -0.005 0.2362, -0.2475 -0.005 0.1969, -0.2573 -0.0047 0.1969, -0.2573 -0.0047 0.2362, -0.273 -0.0024 0.1969, -0.273 -0.0024 0.2362, -0.2954 0.0052 0.1969, -0.2954 0.0052 0.2362, -0.3158 0.018 0.1969, -0.3158 0.018 0.2362, -0.1663 0.0294 0.2362, -0.1663 0.0294 0.1969, -0.1742 0.0212 0.1969, -0.1742 0.0212 0.2362, -0.1932 0.0075 0.1969, -0.1932 0.0075 0.2362, -0.2168 -0.0015 0.1969, -0.2168 -0.0015 0.2362, -0.1413 0.0996 0.2362, -0.1413 0.0996 0.1969, -0.1441 0.0736 0.1969, -0.1441 0.0736 0.2362, -0.152 0.051 0.1969, -0.152 0.051 0.2362, -0.2315 0.201 0.1969, -0.2315 0.201 0.2362, -0.2248 0.1994 0.1969, -0.2075 0.1953 0.2362, -0.2075 0.1953 0.1969, -0.1866 0.1847 0.1969, -0.1866 0.1847 0.2362, -0.1661 0.1667 0.1969, -0.1661 0.1667 0.2362, -0.1526 0.1473 0.1969, -0.1526 0.1473 0.2362, -0.1446 0.1265 0.1969, -0.1446 0.1265 0.2362, -0.0252 0.0 0.2362, -0.0252 0.1969 0.2362, -0.0252 0.0 0.1969, -0.0252 0.1969 0.1969, -0.0429 0.1969 0.2362, -0.0429 0.1969 0.1969, -0.0429 0.0202 0.2362, -0.0429 0.0202 0.1969, -0.1186 0.0202 0.2362, -0.1186 0.0202 0.1969, -0.1186 0.0 0.2362, -0.1186 0.0 0.1969
            ]
        }
        coordIndex [
            0,1,2,-1,2,1,3,-1,4,0,5,-1,5,0,2,-1,6,4,7,-1,7,4,5,-1,5,2,7,-1,7,2,3,-1,7,3,8,-1,8,3,9,-1,0,4,1,-1,1,4,6,-1,1,6,10,-1,10,6,11,-1,9,3,10,-1,10,3,1,-1,11,6,8,-1,8,6,7,-1,12,13,14,-1,14,13,15,-1,16,13,17,-1,17,13,12,-1,18,16,19,-1,19,16,17,-1,20,18,21,-1,21,18,19,-1,20,21,22,-1,22,21,23,-1,16,18,13,-1,13,18,20,-1,13,20,15,-1,15,20,22,-1,19,17,21,-1,21,17,12,-1,21,12,23,-1,23,12,14,-1,24,25,26,-1,26,25,27,-1,28,24,29,-1,29,24,26,-1,30,28,31,-1,31,28,29,-1,32,33,27,-1,27,33,31,-1,27,31,26,-1,26,31,29,-1,24,28,25,-1,25,28,30,-1,25,30,34,-1,34,30,35,-1,32,27,34,-1,34,27,25,-1,35,30,33,-1,33,30,31,-1,36,37,38,-1,38,37,39,-1,40,37,41,-1,41,37,36,-1,42,40,43,-1,43,40,41,-1,44,42,45,-1,45,42,43,-1,44,45,46,-1,46,45,47,-1,40,42,37,-1,37,42,44,-1,37,44,39,-1,39,44,46,-1,43,41,45,-1,45,41,36,-1,45,36,47,-1,47,36,38,-1,48,49,50,-1,50,49,51,-1,52,48,53,-1,53,48,50,-1,54,52,55,-1,55,52,53,-1,56,57,51,-1,51,57,55,-1,51,55,50,-1,50,55,53,-1,48,52,49,-1,49,52,54,-1,49,54,58,-1,58,54,59,-1,56,51,58,-1,58,51,49,-1,59,54,57,-1,57,54,55,-1,60,61,62,-1,62,61,63,-1,64,61,65,-1,65,61,60,-1,66,64,67,-1,67,64,65,-1,68,66,69,-1,69,66,67,-1,68,69,70,-1,70,69,71,-1,70,63,68,-1,68,63,61,-1,68,61,66,-1,66,61,64,-1,67,65,69,-1,69,65,60,-1,69,60,71,-1,71,60,62,-1,72,73,74,-1,74,73,75,-1,76,72,77,-1,77,72,74,-1,78,76,79,-1,79,76,77,-1,80,81,75,-1,75,81,79,-1,75,79,74,-1,74,79,77,-1,72,76,73,-1,73,76,78,-1,73,78,82,-1,82,78,83,-1,80,75,82,-1,82,75,73,-1,83,78,81,-1,81,78,79,-1,84,85,86,-1,86,85,87,-1,88,85,89,-1,89,85,84,-1,90,88,91,-1,91,88,89,-1,92,90,93,-1,93,90,91,-1,92,93,94,-1,94,93,95,-1,88,90,85,-1,85,90,92,-1,85,92,87,-1,87,92,94,-1,91,89,93,-1,93,89,84,-1,93,84,95,-1,95,84,86,-1,96,97,98,-1,98,97,99,-1,100,96,101,-1,101,96,98,-1,102,100,103,-1,103,100,101,-1,101,98,103,-1,103,98,99,-1,103,99,104,-1,104,99,105,-1,106,107,102,-1,102,107,97,-1,102,97,100,-1,100,97,96,-1,105,99,107,-1,107,99,97,-1,106,102,104,-1,104,102,103,-1,108,109,110,-1,110,109,111,-1,112,109,113,-1,113,109,108,-1,114,112,115,-1,115,112,113,-1,116,114,117,-1,117,114,115,-1,116,117,118,-1,118,117,119,-1,112,114,109,-1,109,114,116,-1,109,116,111,-1,111,116,118,-1,115,113,117,-1,117,113,108,-1,117,108,119,-1,119,108,110,-1,120,121,122,-1,122,121,123,-1,124,120,125,-1,125,120,122,-1,126,124,127,-1,127,124,125,-1,125,122,127,-1,127,122,123,-1,127,123,128,-1,128,123,129,-1,130,131,126,-1,126,131,121,-1,126,121,124,-1,124,121,120,-1,129,123,131,-1,131,123,121,-1,130,126,128,-1,128,126,127,-1,132,133,134,-1,134,133,135,-1,136,133,137,-1,137,133,132,-1,138,136,139,-1,139,136,137,-1,140,138,141,-1,141,138,139,-1,140,141,142,-1,142,141,143,-1,136,138,133,-1,133,138,140,-1,133,140,135,-1,135,140,142,-1,134,143,132,-1,132,143,141,-1,132,141,137,-1,137,141,139,-1,144,145,146,-1,146,145,147,-1,148,144,149,-1,149,144,146,-1,150,148,151,-1,151,148,149,-1,149,146,151,-1,151,146,147,-1,151,147,152,-1,152,147,153,-1,154,155,150,-1,150,155,145,-1,150,145,148,-1,148,145,144,-1,153,147,155,-1,155,147,145,-1,154,150,152,-1,152,150,151,-1,156,157,158,-1,158,157,159,-1,160,157,161,-1,161,157,156,-1,162,160,163,-1,163,160,161,-1,164,162,165,-1,165,162,163,-1,164,165,166,-1,166,165,167,-1,160,162,157,-1,157,162,164,-1,157,164,159,-1,159,164,166,-1,163,161,165,-1,165,161,156,-1,165,156,167,-1,167,156,158,-1,168,169,170,-1,170,169,171,-1,172,168,173,-1,173,168,170,-1,174,172,175,-1,175,172,173,-1,176,177,171,-1,171,177,175,-1,171,175,170,-1,170,175,173,-1,168,172,169,-1,169,172,174,-1,169,174,178,-1,178,174,179,-1,176,171,178,-1,178,171,169,-1,179,174,177,-1,177,174,175,-1,180,181,182,-1,182,181,183,-1,184,181,185,-1,185,181,180,-1,186,184,187,-1,187,184,185,-1,188,186,189,-1,189,186,187,-1,188,189,190,-1,190,189,191,-1,184,186,181,-1,181,186,188,-1,181,188,183,-1,183,188,190,-1,187,185,189,-1,189,185,180,-1,189,180,191,-1,191,180,182,-1,192,193,194,-1,194,193,195,-1,196,192,197,-1,197,192,194,-1,198,196,199,-1,199,196,197,-1,197,194,199,-1,199,194,195,-1,199,195,200,-1,200,195,201,-1,202,203,198,-1,198,203,193,-1,198,193,196,-1,196,193,192,-1,195,193,203,-1,203,204,195,-1,195,204,205,-1,195,205,201,-1,202,198,206,-1,206,198,199,-1,206,199,207,-1,207,199,200,-1,208,209,210,-1,210,209,211,-1,212,209,213,-1,213,209,208,-1,214,212,215,-1,215,212,213,-1,216,214,217,-1,217,214,215,-1,216,217,218,-1,218,217,219,-1,212,214,209,-1,209,214,216,-1,209,216,211,-1,211,216,218,-1,215,213,217,-1,217,213,208,-1,217,208,219,-1,219,208,210,-1,220,221,222,-1,222,221,223,-1,224,220,225,-1,225,220,222,-1,226,224,227,-1,227,224,225,-1,228,229,223,-1,223,229,227,-1,223,227,222,-1,222,227,225,-1,220,224,221,-1,221,224,226,-1,221,226,230,-1,230,226,231,-1,223,221,230,-1,230,232,223,-1,223,232,233,-1,223,233,228,-1,231,226,234,-1,234,226,227,-1,234,227,235,-1,235,227,229,-1,236,237,238,-1,238,237,239,-1,240,237,241,-1,241,237,236,-1,242,240,243,-1,243,240,241,-1,244,242,245,-1,245,242,243,-1,244,245,246,-1,246,245,247,-1,240,242,237,-1,237,242,244,-1,237,244,239,-1,239,244,246,-1,243,241,245,-1,245,241,236,-1,245,236,247,-1,247,236,238,-1,248,249,250,-1,250,249,251,-1,252,248,253,-1,253,248,250,-1,254,252,255,-1,255,252,253,-1,253,250,255,-1,255,250,251,-1,255,251,256,-1,256,251,257,-1,258,259,254,-1,254,259,249,-1,254,249,252,-1,252,249,248,-1,257,251,259,-1,259,251,249,-1,258,254,256,-1,256,254,255,-1,260,261,262,-1,262,261,263,-1,264,261,265,-1,265,261,260,-1,266,264,267,-1,267,264,265,-1,268,266,269,-1,269,266,267,-1,268,269,270,-1,270,269,271,-1,264,266,261,-1,261,266,268,-1,261,268,263,-1,263,268,270,-1,267,265,269,-1,269,265,260,-1,269,260,271,-1,271,260,262,-1,272,273,274,-1,274,273,275,-1,276,272,277,-1,277,272,274,-1,278,276,279,-1,279,276,277,-1,280,281,275,-1,275,281,279,-1,275,279,274,-1,274,279,277,-1,272,276,273,-1,273,276,278,-1,273,278,282,-1,282,278,283,-1,280,275,282,-1,282,275,273,-1,283,278,281,-1,281,278,279,-1,284,285,286,-1,286,285,287,-1,288,285,289,-1,289,285,284,-1,290,288,291,-1,291,288,289,-1,292,290,293,-1,293,290,291,-1,292,293,294,-1,294,293,295,-1,288,290,285,-1,285,290,292,-1,285,292,287,-1,287,292,294,-1,291,289,293,-1,293,289,284,-1,293,284,295,-1,295,284,286,-1,296,297,298,-1,298,297,299,-1,300,296,301,-1,301,296,298,-1,302,300,303,-1,303,300,301,-1,304,305,299,-1,299,305,303,-1,299,303,298,-1,298,303,301,-1,296,300,297,-1,297,300,302,-1,297,302,306,-1,306,302,307,-1,304,299,306,-1,306,299,297,-1,307,302,305,-1,305,302,303,-1,308,309,310,-1,310,309,311,-1,312,309,313,-1,313,309,308,-1,314,312,315,-1,315,312,313,-1,316,314,317,-1,317,314,315,-1,316,317,318,-1,318,317,319,-1,318,311,316,-1,316,311,309,-1,316,309,314,-1,314,309,312,-1,315,313,317,-1,317,313,308,-1,317,308,319,-1,319,308,310,-1,320,321,322,-1,322,321,323,-1,324,320,325,-1,325,320,322,-1,326,324,327,-1,327,324,325,-1,328,329,323,-1,323,329,327,-1,323,327,322,-1,322,327,325,-1,320,324,321,-1,321,324,326,-1,321,326,330,-1,330,326,331,-1,328,323,330,-1,330,323,321,-1,331,326,329,-1,329,326,327,-1,332,333,334,-1,334,333,335,-1,336,333,337,-1,337,333,332,-1,338,336,339,-1,339,336,337,-1,340,338,341,-1,341,338,339,-1,340,341,342,-1,342,341,343,-1,336,338,333,-1,333,338,340,-1,333,340,335,-1,335,340,342,-1,339,337,341,-1,341,337,332,-1,341,332,343,-1,343,332,334,-1,344,345,346,-1,346,345,347,-1,348,344,349,-1,349,344,346,-1,350,348,351,-1,351,348,349,-1,349,346,351,-1,351,346,347,-1,351,347,352,-1,352,347,353,-1,344,348,345,-1,345,348,350,-1,345,350,354,-1,354,350,355,-1,353,347,354,-1,354,347,345,-1,355,350,352,-1,352,350,351,-1,356,357,358,-1,358,357,359,-1,360,357,361,-1,361,357,356,-1,362,360,363,-1,363,360,361,-1,364,362,365,-1,365,362,363,-1,364,365,366,-1,366,365,367,-1,360,362,357,-1,357,362,364,-1,357,364,359,-1,359,364,366,-1,363,361,365,-1,365,361,356,-1,365,356,367,-1,367,356,358,-1,368,369,370,-1,370,369,371,-1,372,368,373,-1,373,368,370,-1,374,372,375,-1,375,372,373,-1,373,370,375,-1,375,370,371,-1,375,371,376,-1,376,371,377,-1,378,379,374,-1,374,379,369,-1,374,369,372,-1,372,369,368,-1,377,371,379,-1,379,371,369,-1,378,374,376,-1,376,374,375,-1,380,381,382,-1,382,381,383,-1,384,381,385,-1,385,381,380,-1,386,384,387,-1,387,384,385,-1,388,386,389,-1,389,386,387,-1,388,389,390,-1,390,389,391,-1,384,386,381,-1,381,386,388,-1,381,388,383,-1,383,388,390,-1,382,391,380,-1,380,391,389,-1,380,389,385,-1,385,389,387,-1,392,393,394,-1,394,393,395,-1,396,392,397,-1,397,392,394,-1,398,396,399,-1,399,396,397,-1,397,394,399,-1,399,394,395,-1,399,395,400,-1,400,395,401,-1,392,396,393,-1,393,396,398,-1,393,398,402,-1,402,398,403,-1,401,395,402,-1,402,395,393,-1,403,398,400,-1,400,398,399,-1,404,405,406,-1,406,405,407,-1,408,405,409,-1,409,405,404,-1,410,408,411,-1,411,408,409,-1,412,410,413,-1,413,410,411,-1,412,413,414,-1,414,413,415,-1,408,410,405,-1,405,410,412,-1,405,412,407,-1,407,412,414,-1,411,409,413,-1,413,409,404,-1,413,404,415,-1,415,404,406,-1,416,417,418,-1,418,417,419,-1,420,416,421,-1,421,416,418,-1,422,420,423,-1,423,420,421,-1,424,425,419,-1,419,425,423,-1,419,423,418,-1,418,423,421,-1,416,420,417,-1,417,420,422,-1,417,422,426,-1,426,422,427,-1,424,419,426,-1,426,419,417,-1,427,422,425,-1,425,422,423,-1,428,429,430,-1,430,429,431,-1,432,429,433,-1,433,429,428,-1,434,432,435,-1,435,432,433,-1,436,434,437,-1,437,434,435,-1,436,437,438,-1,438,437,439,-1,432,434,429,-1,429,434,436,-1,429,436,431,-1,431,436,438,-1,435,433,437,-1,437,433,428,-1,437,428,439,-1,439,428,430,-1,440,441,442,-1,442,441,443,-1,444,440,445,-1,445,440,442,-1,446,444,447,-1,447,444,445,-1,445,442,447,-1,447,442,443,-1,447,443,448,-1,448,443,449,-1,440,444,441,-1,441,444,446,-1,441,446,450,-1,450,446,451,-1,449,443,450,-1,450,443,441,-1,451,446,448,-1,448,446,447,-1,452,453,454,-1,454,453,455,-1,456,453,457,-1,457,453,452,-1,458,456,459,-1,459,456,457,-1,460,458,461,-1,461,458,459,-1,460,461,462,-1,462,461,463,-1,456,458,453,-1,453,458,460,-1,453,460,455,-1,455,460,462,-1,459,457,461,-1,461,457,452,-1,461,452,463,-1,463,452,454,-1,464,465,466,-1,466,465,467,-1,468,464,469,-1,469,464,466,-1,470,468,471,-1,471,468,469,-1,472,473,467,-1,467,473,471,-1,467,471,466,-1,466,471,469,-1,464,468,465,-1,465,468,470,-1,465,470,474,-1,474,470,475,-1,472,467,474,-1,474,467,465,-1,475,470,473,-1,473,470,471,-1,476,477,478,-1,478,477,479,-1,480,477,481,-1,481,477,476,-1,482,480,483,-1,483,480,481,-1,484,482,485,-1,485,482,483,-1,484,485,486,-1,486,485,487,-1,480,482,477,-1,477,482,484,-1,477,484,479,-1,479,484,486,-1,483,481,485,-1,485,481,476,-1,485,476,487,-1,487,476,478,-1,488,489,490,-1,490,489,491,-1,489,492,491,-1,491,492,493,-1,492,494,493,-1,493,494,495,-1,494,496,495,-1,495,496,497,-1,497,496,498,-1,498,496,499,-1,498,499,500,-1,499,501,500,-1,500,501,502,-1,501,503,502,-1,502,503,504,-1,504,503,505,-1,505,503,488,-1,505,488,490,-1,506,492,489,-1,488,507,489,-1,489,507,508,-1,489,508,506,-1,503,501,499,-1,494,492,496,-1,496,492,506,-1,496,506,499,-1,499,506,507,-1,499,507,503,-1,503,507,488,-1,506,508,509,-1,509,508,510,-1,507,506,511,-1,511,506,509,-1,508,507,510,-1,510,507,511,-1,512,513,514,-1,514,513,515,-1,513,516,515,-1,515,516,517,-1,516,518,517,-1,517,518,519,-1,520,521,522,-1,520,522,523,-1,523,522,519,-1,523,519,518,-1,524,525,526,-1,524,526,527,-1,527,526,528,-1,527,528,529,-1,529,528,530,-1,529,530,531,-1,531,530,532,-1,531,532,533,-1,533,532,534,-1,533,534,535,-1,535,534,521,-1,535,521,520,-1,512,514,536,-1,512,536,537,-1,537,536,538,-1,537,538,539,-1,539,538,540,-1,539,540,541,-1,541,540,542,-1,541,542,543,-1,543,542,544,-1,543,544,545,-1,545,544,546,-1,545,546,547,-1,547,546,525,-1,547,525,524,-1,548,549,520,-1,520,549,550,-1,520,550,535,-1,535,550,551,-1,535,551,533,-1,533,551,552,-1,533,552,531,-1,531,552,553,-1,531,553,529,-1,529,553,554,-1,529,554,527,-1,527,554,555,-1,527,555,524,-1,524,555,556,-1,524,556,547,-1,547,556,557,-1,547,557,545,-1,545,557,558,-1,545,558,543,-1,543,558,559,-1,543,559,541,-1,541,559,560,-1,541,560,539,-1,539,560,561,-1,539,561,537,-1,537,561,562,-1,537,562,512,-1,512,562,563,-1,512,563,513,-1,513,563,564,-1,513,564,516,-1,516,564,565,-1,516,565,518,-1,518,565,566,-1,518,566,523,-1,523,566,548,-1,523,548,520,-1,565,564,567,-1,567,564,568,-1,566,565,569,-1,569,565,567,-1,566,569,570,-1,566,570,548,-1,548,570,571,-1,548,571,549,-1,549,571,572,-1,549,572,550,-1,550,572,573,-1,550,573,551,-1,551,573,574,-1,551,574,552,-1,552,574,575,-1,552,575,553,-1,553,575,576,-1,553,576,554,-1,554,576,577,-1,554,577,555,-1,555,577,578,-1,555,578,556,-1,556,578,579,-1,556,579,557,-1,557,579,580,-1,557,580,558,-1,558,580,581,-1,558,581,559,-1,559,581,582,-1,559,582,560,-1,560,582,583,-1,560,583,561,-1,561,583,584,-1,561,584,562,-1,562,584,585,-1,562,585,563,-1,564,563,568,-1,568,563,585,-1,586,587,588,-1,588,587,589,-1,587,590,589,-1,589,590,591,-1,590,592,591,-1,591,592,593,-1,592,594,593,-1,593,594,595,-1,594,596,595,-1,595,596,597,-1,596,598,597,-1,597,598,599,-1,598,600,599,-1,599,600,601,-1,600,602,601,-1,601,602,603,-1,602,604,603,-1,603,604,605,-1,604,606,605,-1,605,606,607,-1,606,608,607,-1,607,608,609,-1,608,586,609,-1,609,586,588,-1,586,608,606,-1,606,604,586,-1,586,604,602,-1,586,602,587,-1,592,590,594,-1,594,590,587,-1,594,587,596,-1,596,587,602,-1,596,602,598,-1,598,602,600,-1,610,611,612,-1,612,611,613,-1,612,613,614,-1,614,613,615,-1,614,615,616,-1,616,615,617,-1,616,617,618,-1,618,617,619,-1,618,619,620,-1,620,619,621,-1,620,621,622,-1,621,623,622,-1,622,623,624,-1,625,626,627,-1,625,627,628,-1,628,627,629,-1,628,629,630,-1,630,629,631,-1,630,631,632,-1,632,631,633,-1,632,633,634,-1,634,633,624,-1,634,624,623,-1,635,636,637,-1,635,637,638,-1,638,637,639,-1,638,639,640,-1,640,639,641,-1,640,641,642,-1,642,641,643,-1,642,643,644,-1,644,643,645,-1,644,645,646,-1,646,645,647,-1,646,647,648,-1,648,647,626,-1,648,626,625,-1,649,650,651,-1,649,651,652,-1,652,651,653,-1,652,653,654,-1,654,653,655,-1,654,655,656,-1,656,655,657,-1,656,657,658,-1,658,657,659,-1,658,659,660,-1,660,659,661,-1,660,661,662,-1,662,661,636,-1,662,636,635,-1,663,664,665,-1,663,665,666,-1,666,665,667,-1,666,667,668,-1,668,667,669,-1,668,669,670,-1,670,669,650,-1,670,650,649,-1,663,671,664,-1,664,671,672,-1,673,674,675,-1,673,675,676,-1,676,675,677,-1,676,677,678,-1,678,677,679,-1,678,679,680,-1,680,679,681,-1,680,681,682,-1,682,681,672,-1,682,672,671,-1,683,684,685,-1,683,685,686,-1,686,685,687,-1,686,687,688,-1,688,687,689,-1,688,689,690,-1,690,689,674,-1,690,674,673,-1,691,692,693,-1,691,693,694,-1,694,693,695,-1,694,695,696,-1,696,695,684,-1,696,684,683,-1,611,610,697,-1,611,697,698,-1,698,697,699,-1,698,699,700,-1,699,701,700,-1,700,701,702,-1,700,702,703,-1,703,702,704,-1,703,704,705,-1,705,704,706,-1,705,706,707,-1,707,706,708,-1,707,708,709,-1,709,708,692,-1,709,692,691,-1,623,621,619,-1,671,663,682,-1,682,663,666,-1,682,666,680,-1,680,666,668,-1,680,668,678,-1,678,668,670,-1,678,670,676,-1,676,670,649,-1,623,619,634,-1,634,619,617,-1,634,617,632,-1,632,617,615,-1,632,615,630,-1,630,615,613,-1,630,613,628,-1,628,613,611,-1,628,611,625,-1,625,611,698,-1,625,698,648,-1,648,698,700,-1,648,700,646,-1,646,700,703,-1,646,703,644,-1,644,703,705,-1,644,705,642,-1,642,705,707,-1,642,707,640,-1,640,707,709,-1,640,709,638,-1,638,709,691,-1,638,691,635,-1,635,691,662,-1,662,691,694,-1,662,694,660,-1,660,694,696,-1,660,696,658,-1,658,696,683,-1,658,683,656,-1,656,683,686,-1,656,686,654,-1,654,686,688,-1,654,688,652,-1,652,688,690,-1,652,690,649,-1,649,690,673,-1,649,673,676,-1,710,711,712,-1,712,711,713,-1,711,714,713,-1,713,714,715,-1,714,716,715,-1,715,716,717,-1,716,718,717,-1,717,718,719,-1,718,720,719,-1,719,720,721,-1,720,710,721,-1,721,710,712,-1,714,711,716,-1,716,711,710,-1,716,710,718,-1,718,710,720,-1,
        ]
    }
}
Shape{
    appearance Appearance {
        material  Material {
            diffuseColor 0.14901960784313725 0.14901960784313725 0.14901960784313725
            specularColor 0.07450980392156863 0.07450980392156863 0.07450980392156863
            ambientIntensity 0.149
            transparency 0.0
            shininess 0.5
        }
    }
    geometry IndexedFaceSet {
        ccw TRUE
        solid FALSE
        coord DEF co Coordinate {
            point [
                -0.8011 0.1585 0.1969, -0.7654 0.0833 0.1969, -0.8358 0.0833 0.1969, -0.5376 0.1767 0.1969, -0.5376 0.0202 0.1969, -0.5514 0.1767 0.1969, -0.5601 0.0202 0.1969, -0.5818 0.1757 0.1969, -0.5885 0.021 0.1969, -0.6119 0.1711 0.1969, -0.6536 0.0548 0.1969, -0.6601 0.0697 0.1969, -0.6636 0.0905 0.1969, -0.6637 0.096 0.1969, -0.6164 0.0252 0.1969, -0.6321 0.0324 0.1969, -0.6438 0.0419 0.1969, -0.6616 0.1169 0.1969, -0.6558 0.1338 0.1969, -0.6468 0.1482 0.1969, -0.6354 0.1593 0.1969, -0.6207 0.1679 0.1969
            ]
        }
        coordIndex [
            0,1,2,-1,3,4,5,-1,5,4,6,-1,5,6,7,-1,7,6,8,-1,7,8,9,-1,10,11,8,-1,8,11,12,-1,8,12,13,-1,14,15,8,-1,8,15,16,-1,8,16,10,-1,13,17,8,-1,8,17,18,-1,8,18,19,-1,19,20,8,-1,8,20,21,-1,8,21,9,-1,
        ]
    }
}